<svg width="56" height="57" viewBox="0 0 56 57" fill="none" xmlns="http://www.w3.org/2000/svg">
<path d="M43.922 20.8544C44.2535 20.5976 44.672 20.4701 45.0954 20.4972C45.5188 20.5242 45.9165 20.7037 46.2104 21.0005C46.5044 21.2973 46.6735 21.69 46.6845 22.1015C46.6955 22.513 46.5477 22.9136 46.2699 23.2248L46.0453 23.4295L29.0313 36.6351C28.7745 36.8346 28.4637 36.9576 28.1363 36.9893C27.809 37.0209 27.4792 36.9598 27.187 36.8134L26.9079 36.6351L9.89388 23.4295C9.56373 23.1715 9.34476 22.8032 9.27984 22.3968C9.21492 21.9903 9.30873 21.575 9.5429 21.2322C9.77707 20.8893 10.1347 20.6436 10.5458 20.5432C10.9569 20.4428 11.3918 20.4949 11.7654 20.6893L12.0172 20.8544L27.9696 33.2313L43.922 20.8544Z" fill="#68737D"/>
</svg>
