<svg width="19" height="18" viewBox="0 0 19 18" fill="none" xmlns="http://www.w3.org/2000/svg">
<path d="M18.3768 8.75C18.3768 13.5664 14.4393 17.4688 9.65801 17.4688C4.8416 17.4688 0.939259 13.5664 0.939259 8.75C0.939259 3.96875 4.8416 0.03125 9.65801 0.03125C14.4393 0.03125 18.3768 3.96875 18.3768 8.75ZM8.63848 13.3906L15.1072 6.92188C15.3182 6.71094 15.3182 6.32422 15.1072 6.11328L14.2986 5.33984C14.0877 5.09375 13.7361 5.09375 13.5252 5.33984L8.25176 10.6133L5.75566 8.15234C5.54473 7.90625 5.19316 7.90625 4.98223 8.15234L4.17363 8.92578C3.9627 9.13672 3.9627 9.52344 4.17363 9.73438L7.82988 13.3906C8.04082 13.6016 8.42754 13.6016 8.63848 13.3906Z" fill="white"/>
</svg>
