<svg width="12" height="12" viewBox="0 0 12 12" fill="none" xmlns="http://www.w3.org/2000/svg">
<path d="M6 10.125C8.27817 10.125 10.125 8.27817 10.125 6C10.125 3.72183 8.27817 1.875 6 1.875C3.72183 1.875 1.875 3.72183 1.875 6C1.875 8.27817 3.72183 10.125 6 10.125Z" stroke="white" stroke-linecap="round" stroke-linejoin="round"/>
<path d="M7.3748 7.03128C7.15832 7.3198 6.85655 7.5329 6.51224 7.6404C6.16792 7.7479 5.79851 7.74435 5.45633 7.63025C5.11414 7.51616 4.81653 7.29729 4.60563 7.00466C4.39474 6.71204 4.28125 6.36047 4.28125 5.99977C4.28125 5.63906 4.39473 5.2875 4.60562 4.99486C4.81651 4.70223 5.11412 4.48337 5.45631 4.36926C5.79849 4.25516 6.1679 4.25161 6.51222 4.3591C6.85653 4.4666 7.1583 4.6797 7.37478 4.96822" stroke="white" stroke-linecap="round" stroke-linejoin="round"/>
</svg>
