<svg width="99" height="61" viewBox="0 0 99 61" fill="none" xmlns="http://www.w3.org/2000/svg">
<g opacity="0.5">
<path fill-rule="evenodd" clip-rule="evenodd" d="M10.0206 22.9538C10.333 22.5975 10.4951 22.1214 10.4632 21.6479C10.4327 21.1743 10.2103 20.7242 9.85325 20.4113C9.49621 20.0983 9.02083 19.9368 8.54731 19.9686C8.07371 19.9992 7.623 20.2223 7.31066 20.5786C6.99773 20.9357 6.83622 21.411 6.86743 21.8852C6.89856 22.3582 7.12099 22.8083 7.47802 23.1212C7.83506 23.4341 8.31044 23.5957 8.78337 23.5645C9.25756 23.5333 9.70767 23.3109 10.0206 22.9538Z" fill="#444444"/>
<path fill-rule="evenodd" clip-rule="evenodd" d="M23.0811 8.05098L23.087 8.04422C23.7416 7.29746 23.6647 6.16057 22.9167 5.50501C22.1688 4.84945 21.0316 4.92223 20.3771 5.66899L20.3712 5.67575C19.7172 6.42183 19.7936 7.5594 20.5415 8.21496C21.2894 8.87052 22.4272 8.79706 23.0811 8.05098Z" fill="#444444"/>
<path fill-rule="evenodd" clip-rule="evenodd" d="M16.7471 15.2775L16.7531 15.2708C17.407 14.5247 17.3307 13.3871 16.5827 12.7316C15.8348 12.076 14.697 12.1495 14.0431 12.8956L14.0372 12.9023C13.3833 13.6484 13.4596 14.786 14.2075 15.4415C14.9555 16.0971 16.0932 16.0236 16.7471 15.2775Z" fill="#444444"/>
<path fill-rule="evenodd" clip-rule="evenodd" d="M29.8146 0.369864C30.1269 0.0135052 30.289 -0.462559 30.2572 -0.936075C30.2267 -1.40967 30.0042 -1.85979 29.6472 -2.17273C29.2902 -2.48566 28.8148 -2.64717 28.3413 -2.61536C27.8677 -2.58483 27.4169 -2.36172 27.1046 -2.00537C26.7917 -1.64833 26.6302 -1.17294 26.6614 -0.69875C26.6925 -0.225828 26.9149 0.224288 27.272 0.537224C27.629 0.85016 28.1044 1.01167 28.5773 0.980537C29.0515 0.949324 29.5016 0.726899 29.8146 0.369864Z" fill="#444444"/>
<path fill-rule="evenodd" clip-rule="evenodd" d="M4.14854 17.8074C4.46088 17.451 4.62298 16.9749 4.59118 16.5014C4.56064 16.0278 4.33754 15.5771 3.98118 15.2648C3.62414 14.9518 3.14876 14.7903 2.67456 14.8215C2.20164 14.8527 1.75093 15.0758 1.43859 15.4321C1.12565 15.7892 0.964149 16.2646 0.994684 16.7382C1.02649 17.2117 1.24892 17.6618 1.60595 17.9747C1.96231 18.2871 2.43837 18.4492 2.9113 18.418C3.38549 18.3868 3.8356 18.1644 4.14854 17.8074Z" fill="#444444"/>
<path fill-rule="evenodd" clip-rule="evenodd" d="M17.21 2.90449L17.216 2.89773C17.8705 2.15098 17.7936 1.01409 17.0456 0.358524C16.2977 -0.297039 15.1605 -0.224251 14.506 0.522506L14.5001 0.529264C13.8462 1.27534 13.9225 2.41291 14.6704 3.06847C15.4184 3.72404 16.5561 3.65057 17.21 2.90449Z" fill="#444444"/>
<path fill-rule="evenodd" clip-rule="evenodd" d="M10.876 10.1311L10.882 10.1243C11.5359 9.37822 11.4596 8.24065 10.7116 7.58509C9.9637 6.92952 8.82595 7.00299 8.17202 7.74907L8.1661 7.75583C7.51217 8.50191 7.58847 9.63947 8.33642 10.295C9.08437 10.9506 10.2221 10.8771 10.876 10.1311Z" fill="#444444"/>
<path fill-rule="evenodd" clip-rule="evenodd" d="M15.8917 28.1003C16.204 27.744 16.3661 27.2679 16.3343 26.7944C16.3038 26.3208 16.0814 25.8707 15.7243 25.5577C15.368 25.2454 14.8919 25.0833 14.4184 25.1151C13.9448 25.1456 13.4941 25.3687 13.1818 25.7251C12.8688 26.0821 12.7073 26.5575 12.7385 27.0317C12.7697 27.5046 12.9928 27.9554 13.3491 28.2677C13.7062 28.5806 14.1815 28.7421 14.6545 28.711C15.1287 28.6798 15.5788 28.4574 15.8917 28.1003Z" fill="#444444"/>
<path fill-rule="evenodd" clip-rule="evenodd" d="M28.9532 13.1975L28.9591 13.1907C29.6136 12.4439 29.5367 11.3071 28.7888 10.6515C28.0409 9.99593 26.9037 10.0687 26.2492 10.8155L26.2432 10.8222C25.5893 11.5683 25.6656 12.7059 26.4136 13.3614C27.1615 14.017 28.2993 13.9435 28.9532 13.1975Z" fill="#444444"/>
<path fill-rule="evenodd" clip-rule="evenodd" d="M22.6192 20.424L22.6251 20.4173C23.2791 19.6712 23.2028 18.5336 22.4548 17.8781C21.7069 17.2225 20.5691 17.296 19.9152 18.042L19.9093 18.0488C19.2553 18.7949 19.3316 19.9324 20.0796 20.588C20.8275 21.2436 21.9653 21.1701 22.6192 20.424Z" fill="#444444"/>
<path fill-rule="evenodd" clip-rule="evenodd" d="M35.6856 5.51635C35.998 5.15999 36.1601 4.68393 36.1283 4.21041C36.0978 3.73681 35.8753 3.2867 35.5183 2.97376C35.1619 2.66142 34.6859 2.49932 34.2124 2.53112C33.7388 2.56166 33.288 2.78476 32.9757 3.14112C32.6628 3.49815 32.5013 3.97354 32.5325 4.44773C32.5636 4.92066 32.7867 5.37137 33.1431 5.68371C33.5001 5.99664 33.9755 6.15815 34.4484 6.12702C34.9226 6.09581 35.3727 5.87338 35.6856 5.51635Z" fill="#444444"/>
<path fill-rule="evenodd" clip-rule="evenodd" d="M21.7638 33.2449C22.0761 32.8885 22.2382 32.4124 22.2064 31.9389C22.1759 31.4653 21.9535 31.0152 21.5964 30.7023C21.2394 30.3893 20.764 30.2278 20.2905 30.2596C19.8169 30.2902 19.3662 30.5133 19.0538 30.8696C18.7409 31.2267 18.5794 31.7021 18.6106 32.1763C18.6417 32.6492 18.8641 33.0993 19.2212 33.4122C19.5782 33.7252 20.0536 33.8867 20.5265 33.8555C21.0007 33.8243 21.4508 33.6019 21.7638 33.2449Z" fill="#444444"/>
<path fill-rule="evenodd" clip-rule="evenodd" d="M34.8243 18.3439L34.8302 18.3372C35.4847 17.5904 35.4078 16.4535 34.6599 15.798C33.9119 15.1424 32.7748 15.2152 32.1203 15.962L32.1143 15.9687C31.4604 16.7148 31.5367 17.8524 32.2847 18.5079C33.0326 19.1635 34.1704 19.09 34.8243 18.3439Z" fill="#444444"/>
<path fill-rule="evenodd" clip-rule="evenodd" d="M28.4903 25.5705L28.4962 25.5638C29.1502 24.8177 29.0739 23.6801 28.3259 23.0245C27.578 22.369 26.4402 22.4424 25.7863 23.1885L25.7804 23.1953C25.1264 23.9414 25.2027 25.0789 25.9507 25.7345C26.6986 26.3901 27.8364 26.3166 28.4903 25.5705Z" fill="#444444"/>
<path fill-rule="evenodd" clip-rule="evenodd" d="M41.5577 10.6628C41.8701 10.3065 42.0322 9.83041 42.0004 9.35689C41.9698 8.8833 41.7474 8.43318 41.3904 8.12024C41.0333 7.80731 40.5579 7.6458 40.0844 7.67761C39.6108 7.70814 39.1601 7.93125 38.8478 8.2876C38.5348 8.64464 38.3733 9.12003 38.4045 9.59422C38.4357 10.0671 38.6581 10.5173 39.0151 10.8302C39.3722 11.1431 39.8476 11.3046 40.3205 11.2735C40.7947 11.2423 41.2448 11.0199 41.5577 10.6628Z" fill="#444444"/>
<path fill-rule="evenodd" clip-rule="evenodd" d="M48.2872 2.9851C48.6001 2.62806 48.7617 2.15268 48.7304 1.67848C48.6993 1.20556 48.4769 0.755445 48.1199 0.442509C47.7628 0.129572 47.2874 -0.0319337 46.8145 -0.000804652C46.3403 0.0304081 45.8902 0.252833 45.5773 0.609869C45.2649 0.966227 45.1028 1.44229 45.1346 1.91581C45.1652 2.38941 45.3876 2.83952 45.7446 3.15246C46.1017 3.46539 46.577 3.6269 47.0506 3.59509C47.5242 3.56456 47.9749 3.34146 48.2872 2.9851Z" fill="#444444"/>
<path fill-rule="evenodd" clip-rule="evenodd" d="M28.087 38.7878C28.3994 38.4315 28.5615 37.9554 28.5297 37.4819C28.4991 37.0083 28.2767 36.5582 27.9197 36.2452C27.5633 35.9329 27.0872 35.7708 26.6137 35.8026C26.1401 35.8331 25.6894 36.0562 25.3771 36.4126C25.0641 36.7696 24.9026 37.245 24.9338 37.7192C24.965 38.1921 25.1881 38.6429 25.5444 38.9552C25.9015 39.2681 26.3769 39.4296 26.8498 39.3985C27.324 39.3673 27.7741 39.1449 28.087 38.7878Z" fill="#444444"/>
<path fill-rule="evenodd" clip-rule="evenodd" d="M41.1475 23.8869L41.1535 23.8802C41.808 23.1334 41.7311 21.9965 40.9831 21.3409C40.2352 20.6854 39.098 20.7582 38.4435 21.5049L38.4376 21.5117C37.7837 22.2578 37.86 23.3953 38.6079 24.0509C39.3559 24.7065 40.4936 24.633 41.1475 23.8869Z" fill="#444444"/>
<path fill-rule="evenodd" clip-rule="evenodd" d="M34.8135 31.1135L34.8195 31.1067C35.4734 30.3606 35.3971 29.2231 34.6491 28.5675C33.9012 27.9119 32.7634 27.9854 32.1095 28.7315L32.1036 28.7382C31.4497 29.4843 31.526 30.6219 32.2739 31.2775C33.0219 31.933 34.1596 31.8596 34.8135 31.1135Z" fill="#444444"/>
<path fill-rule="evenodd" clip-rule="evenodd" d="M47.881 16.2058C48.1933 15.8494 48.3554 15.3734 48.3236 14.8999C48.2931 14.4263 48.0706 13.9761 47.7136 13.6632C47.3572 13.3509 46.8812 13.1888 46.4077 13.2206C45.9341 13.2511 45.4834 13.4742 45.171 13.8306C44.8581 14.1876 44.6966 14.663 44.7278 15.1372C44.7589 15.6101 44.982 16.0608 45.3384 16.3732C45.6954 16.6861 46.1708 16.8476 46.6437 16.8165C47.1179 16.7853 47.568 16.5628 47.881 16.2058Z" fill="#444444"/>
<path fill-rule="evenodd" clip-rule="evenodd" d="M54.6105 8.52611C54.9234 8.16908 55.0849 7.69369 55.0537 7.2195C55.0226 6.74658 54.8001 6.29646 54.4431 5.98352C54.0867 5.67118 53.6107 5.50908 53.1378 5.54021C52.6636 5.57142 52.2134 5.79385 51.9005 6.15088C51.5882 6.50724 51.4261 6.98331 51.4579 7.45682C51.4884 7.93042 51.7115 8.38113 52.0679 8.69347C52.4249 9.00641 52.9003 9.16792 53.3738 9.13611C53.8474 9.10557 54.2981 8.88247 54.6105 8.52611Z" fill="#444444"/>
<path fill-rule="evenodd" clip-rule="evenodd" d="M60.9415 1.30293L60.9474 1.29617C61.6013 0.550091 61.525 -0.587475 60.7771 -1.24304C60.0291 -1.8986 58.8914 -1.82514 58.2375 -1.07906L58.2315 -1.0723C57.5776 -0.326218 57.6539 0.811348 58.4018 1.46691C59.1498 2.12247 60.2875 2.04901 60.9415 1.30293Z" fill="#444444"/>
<path fill-rule="evenodd" clip-rule="evenodd" d="M33.9581 43.9343C34.2705 43.578 34.4326 43.1019 34.4014 42.629C34.3702 42.1548 34.1478 41.7047 33.7908 41.3917C33.4344 41.0794 32.9583 40.9173 32.4848 40.9491C32.0112 40.9796 31.5605 41.2027 31.2482 41.5591C30.9352 41.9161 30.7737 42.3915 30.8049 42.8657C30.8361 43.3386 31.0592 43.7893 31.4155 44.1017C31.7726 44.4146 32.2479 44.5761 32.7215 44.5456C33.1951 44.5138 33.6452 44.2914 33.9581 43.9343Z" fill="#444444"/>
<path fill-rule="evenodd" clip-rule="evenodd" d="M47.0196 29.0334L47.0255 29.0266C47.68 28.2799 47.6031 27.143 46.8552 26.4874C46.1073 25.8319 44.9701 25.9047 44.3156 26.6514L44.3097 26.6582C43.6557 27.4043 43.732 28.5418 44.48 29.1974C45.2279 29.8529 46.3657 29.7795 47.0196 29.0334Z" fill="#444444"/>
<path fill-rule="evenodd" clip-rule="evenodd" d="M40.6856 36.26L40.6915 36.2532C41.3455 35.5071 41.2692 34.3696 40.5212 33.714C39.7733 33.0584 38.6355 33.1319 37.9816 33.878L37.9757 33.8847C37.3217 34.6308 37.398 35.7684 38.146 36.4239C38.8939 37.0795 40.0317 37.006 40.6856 36.26Z" fill="#444444"/>
<path fill-rule="evenodd" clip-rule="evenodd" d="M53.7521 21.3523C54.0644 20.9959 54.2265 20.5199 54.1954 20.0469C54.1642 19.5727 53.9417 19.1226 53.5847 18.8097C53.2283 18.4974 52.7523 18.3353 52.2788 18.3671C51.8052 18.3976 51.3544 18.6207 51.0421 18.9771C50.7292 19.3341 50.5677 19.8095 50.5989 20.2837C50.63 20.7566 50.8531 21.2073 51.2095 21.5196C51.5665 21.8326 52.0419 21.9941 52.5155 21.9636C52.989 21.9317 53.4391 21.7093 53.7521 21.3523Z" fill="#444444"/>
<path fill-rule="evenodd" clip-rule="evenodd" d="M60.4815 13.6726C60.7945 13.3156 60.956 12.8402 60.9255 12.3666C60.8936 11.8931 60.6712 11.4429 60.3142 11.13C59.9578 10.8177 59.4818 10.6556 59.0088 10.6867C58.5347 10.7179 58.0845 10.9403 57.7716 11.2974C57.4593 11.6537 57.2972 12.1298 57.329 12.6033C57.3595 13.0769 57.5826 13.5276 57.939 13.84C58.296 14.1529 58.7714 14.3144 59.2456 14.2832C59.7185 14.2521 60.1692 14.029 60.4815 13.6726Z" fill="#444444"/>
<path fill-rule="evenodd" clip-rule="evenodd" d="M73.543 -1.22832L73.549 -1.23508C74.2035 -1.98183 74.1266 -3.11872 73.3786 -3.77429C72.6307 -4.42985 71.4935 -4.35706 70.839 -3.61031L70.8331 -3.60355C70.1792 -2.85747 70.2555 -1.7199 71.0034 -1.06434C71.7514 -0.408775 72.8891 -0.482239 73.543 -1.22832Z" fill="#444444"/>
<path fill-rule="evenodd" clip-rule="evenodd" d="M66.8126 6.44941L66.8185 6.44266C67.4724 5.69658 67.3961 4.55901 66.6482 3.90345C65.9002 3.24788 64.7625 3.32135 64.1085 4.06743L64.1026 4.07419C63.4487 4.82027 63.525 5.95783 64.2729 6.6134C65.0209 7.26896 66.1586 7.1955 66.8126 6.44941Z" fill="#444444"/>
<path fill-rule="evenodd" clip-rule="evenodd" d="M39.8302 49.0808C40.1425 48.7244 40.3046 48.2484 40.2728 47.7749C40.2423 47.3013 40.0199 46.8511 39.6628 46.5382C39.3065 46.2259 38.8304 46.0638 38.3569 46.0956C37.8833 46.1261 37.4326 46.3492 37.1202 46.7056C36.8073 47.0626 36.6458 47.538 36.677 48.0122C36.7081 48.4851 36.9312 48.9358 37.2876 49.2482C37.6446 49.5611 38.12 49.7226 38.5929 49.6915C39.0671 49.6603 39.5172 49.4378 39.8302 49.0808Z" fill="#444444"/>
<path fill-rule="evenodd" clip-rule="evenodd" d="M52.8907 34.1799L52.8966 34.1731C53.5511 33.4264 53.4742 32.2895 52.7263 31.6339C51.9784 30.9784 50.8412 31.0511 50.1867 31.7979L50.1807 31.8047C49.5268 32.5507 49.6031 33.6883 50.3511 34.3439C51.099 34.9994 52.2368 34.926 52.8907 34.1799Z" fill="#444444"/>
<path fill-rule="evenodd" clip-rule="evenodd" d="M46.5567 41.4064L46.5626 41.3997C47.2166 40.6536 47.1403 39.516 46.3923 38.8605C45.6444 38.2049 44.5066 38.2784 43.8527 39.0245L43.8468 39.0312C43.1928 39.7773 43.2691 40.9149 44.0171 41.5704C44.765 42.226 45.9028 42.1525 46.5567 41.4064Z" fill="#444444"/>
<path fill-rule="evenodd" clip-rule="evenodd" d="M59.6231 26.4968C59.9355 26.1405 60.0976 25.6644 60.0658 25.1909C60.0353 24.7173 59.8128 24.2672 59.4558 23.9542C59.0994 23.6419 58.6234 23.4798 58.1499 23.5116C57.6763 23.5421 57.2255 23.7652 56.9132 24.1216C56.6003 24.4786 56.4388 24.954 56.47 25.4282C56.5011 25.9011 56.7242 26.3518 57.0806 26.6642C57.4376 26.9771 57.913 27.1386 58.3859 27.1075C58.8601 27.0763 59.3102 26.8539 59.6231 26.4968Z" fill="#444444"/>
<path fill-rule="evenodd" clip-rule="evenodd" d="M66.3536 18.8191C66.6666 18.462 66.8281 17.9867 66.7968 17.5125C66.7657 17.0395 66.5433 16.5894 66.1863 16.2765C65.8299 15.9642 65.3538 15.8021 64.8809 15.8332C64.4067 15.8644 63.9566 16.0868 63.6437 16.4439C63.3313 16.8002 63.1692 17.2763 63.201 17.7498C63.2316 18.2234 63.4547 18.6741 63.811 18.9864C64.1681 19.2994 64.6435 19.4609 65.117 19.4291C65.5906 19.3985 66.0413 19.1754 66.3536 18.8191Z" fill="#444444"/>
<path fill-rule="evenodd" clip-rule="evenodd" d="M79.4141 3.91816L79.4201 3.91141C80.0746 3.16465 79.9977 2.02776 79.2497 1.3722C78.5018 0.716633 77.3646 0.789421 76.7101 1.53618L76.7042 1.54294C76.0503 2.28902 76.1266 3.42658 76.8745 4.08215C77.6225 4.73771 78.7602 4.66425 79.4141 3.91816Z" fill="#444444"/>
<path fill-rule="evenodd" clip-rule="evenodd" d="M72.6846 11.5959L72.6906 11.5891C73.3445 10.8431 73.2682 9.70549 72.5202 9.04993C71.7723 8.39437 70.6345 8.46783 69.9806 9.21391L69.9747 9.22067C69.3208 9.96675 69.3971 11.1043 70.145 11.7599C70.893 12.4154 72.0307 12.342 72.6846 11.5959Z" fill="#444444"/>
<path fill-rule="evenodd" clip-rule="evenodd" d="M45.7013 54.2273C46.0136 53.8709 46.1757 53.3949 46.1446 52.9219C46.1134 52.4477 45.891 51.9976 45.5339 51.6847C45.1776 51.3724 44.7015 51.2103 44.228 51.2421C43.7544 51.2726 43.3037 51.4957 42.9913 51.8521C42.6784 52.2091 42.5169 52.6845 42.5481 53.1587C42.5792 53.6316 42.8023 54.0823 43.1587 54.3946C43.5157 54.7076 43.9911 54.8691 44.4647 54.8386C44.9382 54.8067 45.3883 54.5843 45.7013 54.2273Z" fill="#444444"/>
<path fill-rule="evenodd" clip-rule="evenodd" d="M58.7628 39.3264L58.7687 39.3196C59.4232 38.5729 59.347 37.4366 58.5984 36.7804C57.8504 36.1248 56.7133 36.1976 56.0587 36.9444L56.0528 36.9511C55.3989 37.6972 55.4752 38.8348 56.2231 39.4903C56.9718 40.1465 58.1088 40.0724 58.7628 39.3264Z" fill="#444444"/>
<path fill-rule="evenodd" clip-rule="evenodd" d="M52.4288 46.5529L52.4347 46.5462C53.0886 45.8001 53.013 44.6631 52.2644 44.007C51.5164 43.3514 50.3787 43.4249 49.7248 44.1709L49.7188 44.1777C49.0649 44.9238 49.1412 46.0613 49.8892 46.7169C50.6378 47.3731 51.7749 47.299 52.4288 46.5529Z" fill="#444444"/>
<path fill-rule="evenodd" clip-rule="evenodd" d="M65.4952 31.6433C65.8076 31.2869 65.9697 30.8109 65.9385 30.338C65.9073 29.8638 65.6849 29.4136 65.3279 29.1007C64.9715 28.7884 64.4954 28.6263 64.0219 28.6581C63.5483 28.6886 63.0976 28.9117 62.7853 29.2681C62.4723 29.6251 62.3108 30.1005 62.342 30.5747C62.3732 31.0476 62.5963 31.4983 62.9526 31.8107C63.3097 32.1236 63.7851 32.2851 64.2587 32.2546C64.7322 32.2228 65.1823 32.0003 65.4952 31.6433Z" fill="#444444"/>
<path fill-rule="evenodd" clip-rule="evenodd" d="M72.2247 23.9656C72.5376 23.6085 72.6992 23.1331 72.6686 22.6595C72.6368 22.186 72.4144 21.7359 72.0574 21.423C71.701 21.1106 71.2249 20.9485 70.752 20.9797C70.2778 21.0109 69.8277 21.2333 69.5148 21.5903C69.2024 21.9467 69.0403 22.4228 69.0721 22.8963C69.1027 23.3699 69.3258 23.8206 69.6821 24.1329C70.0392 24.4459 70.5145 24.6074 70.9887 24.5762C71.4617 24.545 71.9124 24.3219 72.2247 23.9656Z" fill="#444444"/>
<path fill-rule="evenodd" clip-rule="evenodd" d="M85.2862 9.06465L85.2921 9.05789C85.9466 8.31113 85.8704 7.17484 85.1218 6.51868C84.3739 5.86312 83.2367 5.93591 82.5822 6.68266L82.5763 6.68942C81.9223 7.4355 81.9986 8.57307 82.7466 9.22863C83.4952 9.88479 84.6323 9.81073 85.2862 9.06465Z" fill="#444444"/>
<path fill-rule="evenodd" clip-rule="evenodd" d="M78.5557 16.7424L78.5617 16.7356C79.2156 15.9895 79.14 14.8526 78.3913 14.1964C77.6434 13.5409 76.5056 13.6143 75.8517 14.3604L75.8458 14.3672C75.1919 15.1132 75.2682 16.2508 76.0161 16.9064C76.7647 17.5625 77.9018 17.4885 78.5557 16.7424Z" fill="#444444"/>
<mask id="mask0_20_429" style="mask-type:luminance" maskUnits="userSpaceOnUse" x="87" y="-3" width="7" height="7">
<path fill-rule="evenodd" clip-rule="evenodd" d="M87.96 0.779297L90.4934 -2.11117L93.384 0.422406L90.8506 3.31287L87.96 0.779297Z" fill="white"/>
</mask>
<g mask="url(#mask0_20_429)">
<path fill-rule="evenodd" clip-rule="evenodd" d="M92.1174 1.86757C92.4505 1.48745 92.6234 0.979651 92.5902 0.475201C92.5569 -0.030605 92.3197 -0.510728 91.9388 -0.844527C91.5587 -1.17769 91.0509 -1.3506 90.5458 -1.31667C90.0407 -1.2841 89.5599 -1.04613 89.2267 -0.66601C88.893 -0.285171 88.7207 0.221908 88.754 0.727714C88.7872 1.23216 89.0252 1.71292 89.4053 2.04609C89.7861 2.37988 90.2932 2.55216 90.7984 2.51959C91.3034 2.48566 91.7836 2.24841 92.1174 1.86757Z" fill="#444444"/>
</g>
<mask id="mask1_20_429" style="mask-type:luminance" maskUnits="userSpaceOnUse" x="47" y="55" width="6" height="6">
<path fill-rule="evenodd" clip-rule="evenodd" d="M47.6758 58.3535L50.051 55.6436L52.7608 58.0187L50.3856 60.7286L47.6758 58.3535Z" fill="white"/>
</mask>
<g mask="url(#mask1_20_429)">
<path fill-rule="evenodd" clip-rule="evenodd" d="M51.5733 59.3738C51.8857 59.0174 52.0478 58.5413 52.016 58.0678C51.9854 57.5942 51.7623 57.1435 51.406 56.8312C51.0489 56.5182 50.5736 56.3567 50.0994 56.388C49.6264 56.4191 49.1757 56.6422 48.8634 56.9985C48.5505 57.3556 48.389 57.831 48.4195 58.3046C48.4513 58.7781 48.6737 59.2282 49.0308 59.5411C49.3871 59.8535 49.8632 60.0156 50.3361 59.9844C50.8103 59.9532 51.2604 59.7308 51.5733 59.3738Z" fill="#444444"/>
</g>
<mask id="mask2_20_429" style="mask-type:luminance" maskUnits="userSpaceOnUse" x="60" y="40" width="6" height="6">
<path fill-rule="evenodd" clip-rule="evenodd" d="M60.7363 43.4512L63.2762 40.5533L65.9861 42.9284L63.4461 45.8263L60.7363 43.4512Z" fill="white"/>
</mask>
<g mask="url(#mask2_20_429)">
<path fill-rule="evenodd" clip-rule="evenodd" d="M64.7131 44.3811L64.7194 44.3739C65.4193 43.5753 65.3792 42.3965 64.6312 41.7409C63.8826 41.0848 62.7094 41.2001 62.0095 41.9986L62.0031 42.0059C61.3038 42.8037 61.3427 43.9826 62.0913 44.6388C62.8392 45.2943 64.0138 45.1789 64.7131 44.3811Z" fill="#444444"/>
</g>
<mask id="mask3_20_429" style="mask-type:luminance" maskUnits="userSpaceOnUse" x="54" y="48" width="6" height="6">
<path fill-rule="evenodd" clip-rule="evenodd" d="M54.2051 50.9043L56.745 48.0065L59.4548 50.3816L56.9149 53.2794L54.2051 50.9043Z" fill="white"/>
</mask>
<g mask="url(#mask3_20_429)">
<path fill-rule="evenodd" clip-rule="evenodd" d="M58.1818 51.8342L58.1882 51.827C58.8874 51.0292 58.8479 49.8496 58.1 49.1941C57.3513 48.5379 56.1775 48.654 55.4782 49.4518L55.4719 49.459C54.7726 50.2568 54.8114 51.4358 55.5601 52.0919C56.308 52.7475 57.4825 52.632 58.1818 51.8342Z" fill="#444444"/>
</g>
<mask id="mask4_20_429" style="mask-type:luminance" maskUnits="userSpaceOnUse" x="67" y="33" width="6" height="6">
<path fill-rule="evenodd" clip-rule="evenodd" d="M67.2715 35.9961L69.8051 33.1055L72.5149 35.4806L69.9813 38.3712L67.2715 35.9961Z" fill="white"/>
</mask>
<g mask="url(#mask4_20_429)">
<path fill-rule="evenodd" clip-rule="evenodd" d="M71.2482 36.926C71.5814 36.5459 71.7639 36.0465 71.7468 35.5562C71.7311 35.0658 71.5164 34.6054 71.16 34.2931C70.803 33.9802 70.3192 33.8283 69.8302 33.8763C69.3426 33.9243 68.8714 34.1707 68.5383 34.5508C68.2045 34.9316 68.0226 35.4303 68.0384 35.9207C68.0554 36.411 68.2694 36.8708 68.6265 37.1837C68.9828 37.4961 69.4673 37.6485 69.955 37.6006C70.4439 37.5525 70.9144 37.3069 71.2482 36.926Z" fill="#444444"/>
</g>
<mask id="mask5_20_429" style="mask-type:luminance" maskUnits="userSpaceOnUse" x="73" y="25" width="7" height="6">
<path fill-rule="evenodd" clip-rule="evenodd" d="M73.9619 28.3633L76.4955 25.4727L79.2053 27.8478L76.6717 30.7384L73.9619 28.3633Z" fill="white"/>
</mask>
<g mask="url(#mask5_20_429)">
<path fill-rule="evenodd" clip-rule="evenodd" d="M77.9387 29.2932C78.2725 28.9124 78.4543 28.4137 78.4379 27.9227C78.4215 27.433 78.2068 26.9726 77.8505 26.6603C77.4934 26.3473 77.0096 26.1955 76.5213 26.2428C76.033 26.2915 75.5625 26.5371 75.2287 26.918C74.8955 27.2981 74.713 27.7975 74.7294 28.2872C74.7459 28.7782 74.9599 29.238 75.3169 29.5509C75.6732 29.8632 76.1577 30.0157 76.646 29.9671C77.1344 29.9197 77.6055 29.6733 77.9387 29.2932Z" fill="#444444"/>
</g>
<mask id="mask6_20_429" style="mask-type:luminance" maskUnits="userSpaceOnUse" x="87" y="10" width="6" height="6">
<path fill-rule="evenodd" clip-rule="evenodd" d="M87.0234 13.4609L89.5633 10.5631L92.2732 12.9382L89.7333 15.836L87.0234 13.4609Z" fill="white"/>
</mask>
<g mask="url(#mask6_20_429)">
<path fill-rule="evenodd" clip-rule="evenodd" d="M91.0002 14.3909L91.0065 14.3836C91.7064 13.5851 91.6663 12.4063 90.9183 11.7507C90.1697 11.0946 88.9965 11.2099 88.2966 12.0084L88.2902 12.0156C87.591 12.8134 87.6298 13.9924 88.3784 14.6486C89.1264 15.3041 90.3009 15.1887 91.0002 14.3909Z" fill="#444444"/>
</g>
<mask id="mask7_20_429" style="mask-type:luminance" maskUnits="userSpaceOnUse" x="80" y="18" width="6" height="6">
<path fill-rule="evenodd" clip-rule="evenodd" d="M80.4912 20.9141L83.0311 18.0162L85.7409 20.3913L83.201 23.2892L80.4912 20.9141Z" fill="white"/>
</mask>
<g mask="url(#mask7_20_429)">
<path fill-rule="evenodd" clip-rule="evenodd" d="M84.4679 21.844L84.4743 21.8368C85.1736 21.0389 85.134 19.8594 84.3861 19.2038C83.6375 18.5477 82.4636 18.6637 81.7643 19.4615L81.758 19.4688C81.0587 20.2666 81.0976 21.4455 81.8462 22.1017C82.5941 22.7572 83.7687 22.6418 84.4679 21.844Z" fill="#444444"/>
</g>
<mask id="mask8_20_429" style="mask-type:luminance" maskUnits="userSpaceOnUse" x="93" y="2" width="6" height="7">
<path fill-rule="evenodd" clip-rule="evenodd" d="M93.7168 5.82422L96.2502 2.93375L98.9601 5.30886L96.4266 8.19933L93.7168 5.82422Z" fill="white"/>
</mask>
<g mask="url(#mask8_20_429)">
<path fill-rule="evenodd" clip-rule="evenodd" d="M97.6935 6.75414C98.0267 6.37403 98.2092 5.87466 98.1921 5.38434C98.1764 4.89389 97.9617 4.43356 97.6053 4.12122C97.2483 3.80828 96.7645 3.6564 96.2755 3.70446C95.7879 3.75239 95.3168 3.9988 94.9836 4.37891C94.6498 4.75975 94.4679 5.2584 94.4837 5.74884C94.5007 6.23916 94.7147 6.6989 95.0718 7.01183C95.4281 7.32418 95.9126 7.47666 96.4003 7.42872C96.8892 7.38066 97.3597 7.13498 97.6935 6.75414Z" fill="#444444"/>
</g>
</g>
</svg>
