<svg width="99" height="80" viewBox="0 0 99 80" fill="none" xmlns="http://www.w3.org/2000/svg">
<g opacity="0.5">
<path fill-rule="evenodd" clip-rule="evenodd" d="M10.0206 41.3874C10.333 41.0311 10.4951 40.555 10.4632 40.0815C10.4327 39.6079 10.2103 39.1578 9.85325 38.8449C9.49621 38.5319 9.02083 38.3704 8.54731 38.4022C8.07371 38.4328 7.623 38.6559 7.31066 39.0122C6.99773 39.3692 6.83622 39.8446 6.86743 40.3188C6.89856 40.7918 7.12099 41.2419 7.47802 41.5548C7.83506 41.8677 8.31044 42.0292 8.78337 41.9981C9.25756 41.9669 9.70767 41.7445 10.0206 41.3874Z" fill="#444444"/>
<path fill-rule="evenodd" clip-rule="evenodd" d="M23.0811 26.4846L23.087 26.4778C23.7416 25.7311 23.6647 24.5942 22.9167 23.9386C22.1688 23.283 21.0316 23.3558 20.3771 24.1026L20.3712 24.1093C19.7172 24.8554 19.7936 25.993 20.5415 26.6486C21.2894 27.3041 22.4272 27.2307 23.0811 26.4846Z" fill="#444444"/>
<path fill-rule="evenodd" clip-rule="evenodd" d="M16.7471 33.7111L16.7531 33.7044C17.407 32.9583 17.3307 31.8207 16.5827 31.1652C15.8348 30.5096 14.697 30.5831 14.0431 31.3291L14.0372 31.3359C13.3833 32.082 13.4596 33.2196 14.2075 33.8751C14.9555 34.5307 16.0932 34.4572 16.7471 33.7111Z" fill="#444444"/>
<path fill-rule="evenodd" clip-rule="evenodd" d="M29.8146 18.8035C30.1269 18.4471 30.289 17.971 30.2572 17.4975C30.2267 17.0239 30.0042 16.5738 29.6472 16.2609C29.2902 15.9479 28.8148 15.7864 28.3413 15.8182C27.8677 15.8488 27.4169 16.0719 27.1046 16.4282C26.7917 16.7853 26.6302 17.2607 26.6614 17.7348C26.6925 18.2078 26.9149 18.6579 27.272 18.9708C27.629 19.2838 28.1044 19.4453 28.5773 19.4141C29.0515 19.3829 29.5016 19.1605 29.8146 18.8035Z" fill="#444444"/>
<path fill-rule="evenodd" clip-rule="evenodd" d="M36.544 11.1257C36.857 10.7687 37.0185 10.2933 36.9873 9.81911C36.9561 9.34619 36.7337 8.89607 36.3767 8.58313C36.0197 8.2702 35.5443 8.10869 35.0713 8.13982C34.5972 8.17103 34.147 8.39346 33.8341 8.75049C33.5218 9.10685 33.3597 9.58292 33.3915 10.0564C33.422 10.53 33.6444 10.9801 34.0015 11.2931C34.3585 11.606 34.8339 11.7675 35.3074 11.7357C35.781 11.7052 36.2317 11.4821 36.544 11.1257Z" fill="#444444"/>
<path fill-rule="evenodd" clip-rule="evenodd" d="M42.8751 3.90254L42.881 3.89578C43.5349 3.1497 43.4586 2.01213 42.7107 1.35657C41.9627 0.701008 40.825 0.774472 40.171 1.52055L40.1651 1.52731C39.5112 2.27339 39.5875 3.41096 40.3354 4.06652C41.0834 4.72208 42.2211 4.64862 42.8751 3.90254Z" fill="#444444"/>
<path fill-rule="evenodd" clip-rule="evenodd" d="M4.14854 36.241C4.46088 35.8846 4.62298 35.4085 4.59118 34.935C4.56064 34.4614 4.33754 34.0107 3.98118 33.6984C3.62414 33.3854 3.14876 33.2239 2.67456 33.2551C2.20164 33.2863 1.75093 33.5094 1.43859 33.8657C1.12565 34.2228 0.964149 34.6982 0.994684 35.1718C1.02649 35.6453 1.24892 36.0954 1.60595 36.4083C1.96231 36.7207 2.43837 36.8828 2.9113 36.8516C3.38549 36.8204 3.8356 36.598 4.14854 36.241Z" fill="#444444"/>
<path fill-rule="evenodd" clip-rule="evenodd" d="M17.21 21.3381L17.216 21.3313C17.8705 20.5846 17.7936 19.4477 17.0456 18.7921C16.2977 18.1366 15.1605 18.2093 14.506 18.9561L14.5001 18.9629C13.8462 19.7089 13.9225 20.8465 14.6704 21.5021C15.4184 22.1576 16.5561 22.0842 17.21 21.3381Z" fill="#444444"/>
<path fill-rule="evenodd" clip-rule="evenodd" d="M10.876 28.5646L10.882 28.5579C11.5359 27.8118 11.4596 26.6742 10.7116 26.0187C9.9637 25.3631 8.82595 25.4366 8.17202 26.1827L8.1661 26.1894C7.51217 26.9355 7.58847 28.0731 8.33642 28.7286C9.08437 29.3842 10.2221 29.3107 10.876 28.5646Z" fill="#444444"/>
<path fill-rule="evenodd" clip-rule="evenodd" d="M23.9425 13.657C24.2548 13.3006 24.4169 12.8246 24.3851 12.351C24.3546 11.8774 24.1315 11.4267 23.7751 11.1144C23.4181 10.8014 22.9427 10.6399 22.4685 10.6712C21.9956 10.7023 21.5449 10.9254 21.2325 11.2817C20.9196 11.6388 20.7581 12.1142 20.7886 12.5878C20.8204 13.0613 21.0429 13.5114 21.3999 13.8243C21.7563 14.1367 22.2323 14.2988 22.7052 14.2676C23.1794 14.2364 23.6295 14.014 23.9425 13.657Z" fill="#444444"/>
<path fill-rule="evenodd" clip-rule="evenodd" d="M30.672 5.97924C30.9849 5.6222 31.1464 5.14682 31.1152 4.67262C31.0841 4.1997 30.861 3.74899 30.5046 3.43665C30.1476 3.12371 29.6722 2.96221 29.1986 2.99274C28.7251 3.02455 28.275 3.24697 27.962 3.60401C27.6497 3.96037 27.4876 4.43643 27.5187 4.90935C27.5499 5.38355 27.7724 5.83366 28.1294 6.1466C28.4857 6.45894 28.9618 6.62104 29.4353 6.58923C29.9089 6.5587 30.3596 6.3356 30.672 5.97924Z" fill="#444444"/>
<path fill-rule="evenodd" clip-rule="evenodd" d="M37.003 -1.24394L37.0089 -1.2507C37.6629 -1.99678 37.5865 -3.13435 36.8386 -3.78991C36.0907 -4.44548 34.9529 -4.37201 34.299 -3.62593L34.2931 -3.61917C33.6391 -2.87309 33.7154 -1.73553 34.4634 -1.07996C35.2113 -0.4244 36.3491 -0.497864 37.003 -1.24394Z" fill="#444444"/>
<path fill-rule="evenodd" clip-rule="evenodd" d="M15.8917 46.5339C16.204 46.1776 16.3661 45.7015 16.3343 45.228C16.3038 44.7544 16.0814 44.3043 15.7243 43.9913C15.368 43.679 14.8919 43.5169 14.4184 43.5487C13.9448 43.5792 13.4941 43.8023 13.1818 44.1587C12.8688 44.5157 12.7073 44.9911 12.7385 45.4653C12.7697 45.9382 12.9928 46.3889 13.3491 46.7013C13.7062 47.0142 14.1815 47.1757 14.6545 47.1446C15.1287 47.1134 15.5788 46.891 15.8917 46.5339Z" fill="#444444"/>
<path fill-rule="evenodd" clip-rule="evenodd" d="M28.9532 31.6311L28.9591 31.6243C29.6136 30.8775 29.5367 29.7407 28.7888 29.0851C28.0409 28.4295 26.9037 28.5023 26.2492 29.2491L26.2432 29.2558C25.5893 30.0019 25.6656 31.1395 26.4136 31.795C27.1615 32.4506 28.2993 32.3771 28.9532 31.6311Z" fill="#444444"/>
<path fill-rule="evenodd" clip-rule="evenodd" d="M22.6192 38.8576L22.6251 38.8509C23.2791 38.1048 23.2028 36.9672 22.4548 36.3116C21.7069 35.6561 20.5691 35.7295 19.9152 36.4756L19.9093 36.4824C19.2553 37.2285 19.3316 38.366 20.0796 39.0216C20.8275 39.6772 21.9653 39.6037 22.6192 38.8576Z" fill="#444444"/>
<path fill-rule="evenodd" clip-rule="evenodd" d="M35.6856 23.9499C35.998 23.5936 36.1601 23.1175 36.1283 22.644C36.0978 22.1704 35.8753 21.7203 35.5183 21.4074C35.1619 21.095 34.6859 20.9329 34.2124 20.9647C33.7388 20.9953 33.288 21.2184 32.9757 21.5747C32.6628 21.9317 32.5013 22.4071 32.5325 22.8813C32.5636 23.3543 32.7867 23.805 33.1431 24.1173C33.5001 24.4302 33.9755 24.5917 34.4484 24.5606C34.9226 24.5294 35.3727 24.307 35.6856 23.9499Z" fill="#444444"/>
<path fill-rule="evenodd" clip-rule="evenodd" d="M42.4151 16.2722C42.7281 15.9152 42.8896 15.4398 42.8584 14.9656C42.8272 14.4927 42.6048 14.0426 42.2478 13.7296C41.8914 13.4173 41.4154 13.2552 40.9424 13.2863C40.4682 13.3175 40.0181 13.5399 39.7052 13.897C39.3929 14.2533 39.2308 14.7294 39.2626 15.2029C39.2931 15.6765 39.5162 16.1272 39.8726 16.4396C40.2296 16.7525 40.705 16.914 41.1785 16.8822C41.6521 16.8517 42.1028 16.6286 42.4151 16.2722Z" fill="#444444"/>
<path fill-rule="evenodd" clip-rule="evenodd" d="M55.4766 1.37129L55.4826 1.36453C56.1371 0.617775 56.0602 -0.519115 55.3122 -1.17468C54.5643 -1.83024 53.4271 -1.75745 52.7726 -1.0107L52.7667 -1.00394C52.1128 -0.257859 52.1891 0.879708 52.937 1.53527C53.685 2.19083 54.8227 2.11737 55.4766 1.37129Z" fill="#444444"/>
<path fill-rule="evenodd" clip-rule="evenodd" d="M48.7462 9.04902L48.7521 9.04227C49.406 8.29618 49.3297 7.15862 48.5818 6.50306C47.8338 5.84749 46.6961 5.92096 46.0421 6.66704L46.0362 6.67379C45.3823 7.41988 45.4586 8.55744 46.2065 9.21301C46.9545 9.86857 48.0922 9.7951 48.7462 9.04902Z" fill="#444444"/>
<path fill-rule="evenodd" clip-rule="evenodd" d="M21.7638 51.6785C22.0761 51.3221 22.2382 50.846 22.2064 50.3725C22.1759 49.8989 21.9535 49.4488 21.5964 49.1359C21.2394 48.8229 20.764 48.6614 20.2905 48.6932C19.8169 48.7238 19.3662 48.9469 19.0538 49.3032C18.7409 49.6603 18.5794 50.1357 18.6106 50.6098C18.6417 51.0828 18.8641 51.5329 19.2212 51.8458C19.5782 52.1588 20.0536 52.3203 20.5265 52.2891C21.0007 52.2579 21.4508 52.0355 21.7638 51.6785Z" fill="#444444"/>
<path fill-rule="evenodd" clip-rule="evenodd" d="M34.8243 36.7775L34.8302 36.7708C35.4847 36.024 35.4078 34.8871 34.6599 34.2316C33.9119 33.576 32.7748 33.6488 32.1203 34.3956L32.1143 34.4023C31.4604 35.1484 31.5367 36.286 32.2847 36.9415C33.0326 37.5971 34.1704 37.5236 34.8243 36.7775Z" fill="#444444"/>
<path fill-rule="evenodd" clip-rule="evenodd" d="M28.4903 44.0041L28.4962 43.9973C29.1502 43.2513 29.0739 42.1137 28.3259 41.4581C27.578 40.8026 26.4402 40.876 25.7863 41.6221L25.7804 41.6289C25.1264 42.375 25.2027 43.5125 25.9507 44.1681C26.6986 44.8236 27.8364 44.7502 28.4903 44.0041Z" fill="#444444"/>
<path fill-rule="evenodd" clip-rule="evenodd" d="M41.5577 29.0964C41.8701 28.7401 42.0322 28.264 42.0004 27.7905C41.9698 27.3169 41.7474 26.8668 41.3904 26.5538C41.0333 26.2409 40.5579 26.0794 40.0844 26.1112C39.6108 26.1417 39.1601 26.3648 38.8478 26.7212C38.5348 27.0782 38.3733 27.5536 38.4045 28.0278C38.4357 28.5007 38.6581 28.9509 39.0151 29.2638C39.3722 29.5767 39.8476 29.7382 40.3205 29.7071C40.7947 29.6759 41.2448 29.4535 41.5577 29.0964Z" fill="#444444"/>
<path fill-rule="evenodd" clip-rule="evenodd" d="M48.2872 21.4187C48.6001 21.0617 48.7617 20.5863 48.7304 20.1121C48.6993 19.6392 48.4769 19.189 48.1199 18.8761C47.7628 18.5632 47.2874 18.4017 46.8145 18.4328C46.3403 18.464 45.8902 18.6864 45.5773 19.0435C45.2649 19.3998 45.1028 19.8759 45.1346 20.3494C45.1652 20.823 45.3876 21.2731 45.7446 21.5861C46.1017 21.899 46.577 22.0605 47.0506 22.0287C47.5242 21.9982 47.9749 21.775 48.2872 21.4187Z" fill="#444444"/>
<path fill-rule="evenodd" clip-rule="evenodd" d="M61.3477 6.51777L61.3537 6.51102C62.0082 5.76426 61.9313 4.62737 61.1833 3.97181C60.4354 3.31624 59.2982 3.38903 58.6437 4.13579L58.6378 4.14254C57.9838 4.88863 58.0602 6.02619 58.8081 6.68176C59.556 7.33732 60.6938 7.26385 61.3477 6.51777Z" fill="#444444"/>
<path fill-rule="evenodd" clip-rule="evenodd" d="M54.6182 14.1955L54.6242 14.1888C55.2781 13.4427 55.2018 12.3051 54.4538 11.6495C53.7059 10.994 52.5681 11.0674 51.9142 11.8135L51.9083 11.8203C51.2544 12.5664 51.3307 13.7039 52.0786 14.3595C52.8266 15.0151 53.9643 14.9416 54.6182 14.1955Z" fill="#444444"/>
<mask id="mask0_20_549" style="mask-type:luminance" maskUnits="userSpaceOnUse" x="64" y="-5" width="6" height="6">
<path fill-rule="evenodd" clip-rule="evenodd" d="M64.1221 -1.68164L66.6555 -4.57211L69.5461 -2.03853L67.0127 0.851937L64.1221 -1.68164Z" fill="white"/>
</mask>
<g mask="url(#mask0_20_549)">
<path fill-rule="evenodd" clip-rule="evenodd" d="M68.2795 -0.593369C68.6126 -0.973485 68.7855 -1.48129 68.7516 -1.98637C68.719 -2.49154 68.4818 -2.97167 68.101 -3.30546C67.7201 -3.63926 67.213 -3.81154 66.708 -3.77761C66.2028 -3.74504 65.722 -3.50706 65.3889 -3.12695C65.0551 -2.74611 64.8828 -2.23903 64.9161 -1.73322C64.9493 -1.22877 65.1865 -0.748651 65.5674 -0.414852C65.9482 -0.0810529 66.4553 0.0912199 66.9597 0.0580157C67.4655 0.0247222 67.9457 -0.212531 68.2795 -0.593369Z" fill="#444444"/>
</g>
<path fill-rule="evenodd" clip-rule="evenodd" d="M28.087 57.2214C28.3994 56.8651 28.5615 56.389 28.5297 55.9155C28.4991 55.4419 28.2767 54.9918 27.9197 54.6788C27.5633 54.3665 27.0872 54.2044 26.6137 54.2362C26.1401 54.2667 25.6894 54.4898 25.3771 54.8462C25.0641 55.2032 24.9026 55.6786 24.9338 56.1528C24.965 56.6257 25.1881 57.0764 25.5444 57.3888C25.9015 57.7017 26.3769 57.8632 26.8498 57.8321C27.324 57.8009 27.7741 57.5785 28.087 57.2214Z" fill="#444444"/>
<path fill-rule="evenodd" clip-rule="evenodd" d="M41.1475 42.3205L41.1535 42.3138C41.808 41.567 41.7311 40.4301 40.9831 39.7745C40.2352 39.119 39.098 39.1918 38.4435 39.9385L38.4376 39.9453C37.7837 40.6914 37.86 41.8289 38.6079 42.4845C39.3559 43.1401 40.4936 43.0666 41.1475 42.3205Z" fill="#444444"/>
<path fill-rule="evenodd" clip-rule="evenodd" d="M34.8135 49.5471L34.8195 49.5403C35.4734 48.7942 35.3971 47.6567 34.6491 47.0011C33.9012 46.3455 32.7634 46.419 32.1095 47.1651L32.1036 47.1718C31.4497 47.9179 31.526 49.0555 32.2739 49.7111C33.0219 50.3666 34.1596 50.2932 34.8135 49.5471Z" fill="#444444"/>
<path fill-rule="evenodd" clip-rule="evenodd" d="M47.881 34.6394C48.1933 34.283 48.3554 33.807 48.3236 33.3335C48.2931 32.8599 48.0706 32.4097 47.7136 32.0968C47.3572 31.7845 46.8812 31.6224 46.4077 31.6542C45.9341 31.6847 45.4834 31.9078 45.171 32.2642C44.8581 32.6212 44.6966 33.0966 44.7278 33.5708C44.7589 34.0437 44.982 34.4944 45.3384 34.8068C45.6954 35.1197 46.1708 35.2812 46.6437 35.2501C47.1179 35.2189 47.568 34.9964 47.881 34.6394Z" fill="#444444"/>
<path fill-rule="evenodd" clip-rule="evenodd" d="M54.6105 26.9597C54.9234 26.6027 55.0849 26.1273 55.0537 25.6531C55.0226 25.1802 54.8001 24.7301 54.4431 24.4171C54.0867 24.1048 53.6107 23.9427 53.1378 23.9738C52.6636 24.005 52.2134 24.2274 51.9005 24.5845C51.5882 24.9408 51.4261 25.4169 51.4579 25.8904C51.4884 26.364 51.7115 26.8147 52.0679 27.1271C52.4249 27.44 52.9003 27.6015 53.3738 27.5697C53.8474 27.5392 54.2981 27.3161 54.6105 26.9597Z" fill="#444444"/>
<path fill-rule="evenodd" clip-rule="evenodd" d="M67.671 12.0588L67.6769 12.052C68.3314 11.3053 68.2545 10.1684 67.5066 9.51282C66.7586 8.85726 65.6215 8.93005 64.9669 9.6768L64.961 9.68356C64.3071 10.4296 64.3834 11.5672 65.1313 12.2228C65.8793 12.8783 67.017 12.8049 67.671 12.0588Z" fill="#444444"/>
<path fill-rule="evenodd" clip-rule="evenodd" d="M60.9415 19.7365L60.9474 19.7298C61.6013 18.9837 61.525 17.8461 60.7771 17.1906C60.0291 16.535 58.8914 16.6085 58.2375 17.3545L58.2315 17.3613C57.5776 18.1074 57.6539 19.2449 58.4018 19.9005C59.1498 20.5561 60.2875 20.4826 60.9415 19.7365Z" fill="#444444"/>
<mask id="mask1_20_549" style="mask-type:luminance" maskUnits="userSpaceOnUse" x="69" y="0" width="7" height="6">
<path fill-rule="evenodd" clip-rule="evenodd" d="M69.8789 3.36328L72.4124 0.472813L75.303 3.00639L72.7695 5.89686L69.8789 3.36328Z" fill="white"/>
</mask>
<g mask="url(#mask1_20_549)">
<path fill-rule="evenodd" clip-rule="evenodd" d="M74.0363 4.45155C74.3695 4.07144 74.5424 3.56363 74.5085 3.05855C74.4759 2.55338 74.2386 2.07326 73.8578 1.73946C73.4777 1.40629 72.9699 1.23339 72.4648 1.26731C71.9596 1.29988 71.4789 1.53786 71.1457 1.91797C70.8119 2.29881 70.6396 2.80589 70.6729 3.3117C70.7061 3.81615 70.9441 4.2969 71.3242 4.63007C71.7051 4.96387 72.2121 5.13614 72.7166 5.10294C73.2224 5.06964 73.7025 4.83239 74.0363 4.45155Z" fill="#444444"/>
</g>
<path fill-rule="evenodd" clip-rule="evenodd" d="M33.9581 62.3679C34.2705 62.0116 34.4326 61.5355 34.4014 61.0626C34.3702 60.5884 34.1478 60.1383 33.7908 59.8253C33.4344 59.513 32.9583 59.3509 32.4848 59.3827C32.0112 59.4132 31.5605 59.6363 31.2482 59.9927C30.9352 60.3497 30.7737 60.8251 30.8049 61.2993C30.8361 61.7722 31.0592 62.2229 31.4155 62.5353C31.7726 62.8482 32.2479 63.0097 32.7215 62.9792C33.1951 62.9474 33.6452 62.7249 33.9581 62.3679Z" fill="#444444"/>
<path fill-rule="evenodd" clip-rule="evenodd" d="M47.0196 47.467L47.0255 47.4602C47.68 46.7135 47.6031 45.5766 46.8552 44.921C46.1073 44.2655 44.9701 44.3382 44.3156 45.085L44.3097 45.0918C43.6557 45.8378 43.732 46.9754 44.48 47.631C45.2279 48.2865 46.3657 48.2131 47.0196 47.467Z" fill="#444444"/>
<path fill-rule="evenodd" clip-rule="evenodd" d="M40.6856 54.6936L40.6915 54.6868C41.3455 53.9407 41.2692 52.8032 40.5212 52.1476C39.7733 51.492 38.6355 51.5655 37.9816 52.3116L37.9757 52.3183C37.3217 53.0644 37.398 54.202 38.146 54.8575C38.8939 55.5131 40.0317 55.4396 40.6856 54.6936Z" fill="#444444"/>
<path fill-rule="evenodd" clip-rule="evenodd" d="M53.7521 39.7859C54.0644 39.4295 54.2265 38.9535 54.1954 38.4805C54.1642 38.0063 53.9417 37.5562 53.5847 37.2433C53.2283 36.9309 52.7523 36.7688 52.2788 36.8007C51.8052 36.8312 51.3544 37.0543 51.0421 37.4107C50.7292 37.7677 50.5677 38.2431 50.5989 38.7173C50.63 39.1902 50.8531 39.6409 51.2095 39.9532C51.5665 40.2662 52.0419 40.4277 52.5155 40.3971C52.989 40.3653 53.4391 40.1429 53.7521 39.7859Z" fill="#444444"/>
<path fill-rule="evenodd" clip-rule="evenodd" d="M60.4815 32.1062C60.7945 31.7492 60.956 31.2738 60.9255 30.8002C60.8936 30.3267 60.6712 29.8765 60.3142 29.5636C59.9578 29.2513 59.4818 29.0892 59.0088 29.1203C58.5347 29.1515 58.0845 29.3739 57.7716 29.731C57.4593 30.0873 57.2972 30.5634 57.329 31.0369C57.3595 31.5105 57.5826 31.9612 57.939 32.2736C58.296 32.5865 58.7714 32.748 59.2456 32.7168C59.7185 32.6857 60.1692 32.4625 60.4815 32.1062Z" fill="#444444"/>
<path fill-rule="evenodd" clip-rule="evenodd" d="M73.543 17.2053L73.549 17.1985C74.2035 16.4518 74.1266 15.3149 73.3786 14.6593C72.6307 14.0037 71.4935 14.0765 70.839 14.8233L70.8331 14.83C70.1792 15.5761 70.2555 16.7137 71.0034 17.3693C71.7514 18.0248 72.8891 17.9514 73.543 17.2053Z" fill="#444444"/>
<path fill-rule="evenodd" clip-rule="evenodd" d="M66.8126 24.883L66.8185 24.8763C67.4724 24.1302 67.3961 22.9926 66.6482 22.337C65.9002 21.6815 64.7625 21.7549 64.1085 22.501L64.1026 22.5078C63.4487 23.2539 63.525 24.3914 64.2729 25.047C65.0209 25.7026 66.1586 25.6291 66.8126 24.883Z" fill="#444444"/>
<mask id="mask2_20_549" style="mask-type:luminance" maskUnits="userSpaceOnUse" x="75" y="5" width="7" height="7">
<path fill-rule="evenodd" clip-rule="evenodd" d="M75.9062 8.64648L78.4397 5.75602L81.3303 8.28959L78.7969 11.1801L75.9062 8.64648Z" fill="white"/>
</mask>
<g mask="url(#mask2_20_549)">
<path fill-rule="evenodd" clip-rule="evenodd" d="M80.0637 9.73476C80.3968 9.35464 80.5697 8.84684 80.5365 8.34239C80.5032 7.83658 80.266 7.35646 79.8851 7.02266C79.505 6.68949 78.9972 6.51659 78.4921 6.55052C77.987 6.58309 77.5062 6.82106 77.173 7.20118C76.8392 7.58202 76.667 8.0891 76.7003 8.5949C76.7335 9.09935 76.9714 9.58011 77.3516 9.91327C77.7324 10.2471 78.2395 10.4193 78.7446 10.3868C79.2497 10.3528 79.7299 10.1156 80.0637 9.73476Z" fill="#444444"/>
</g>
<path fill-rule="evenodd" clip-rule="evenodd" d="M39.8302 67.5144C40.1425 67.158 40.3046 66.682 40.2728 66.2085C40.2423 65.7349 40.0199 65.2847 39.6628 64.9718C39.3065 64.6595 38.8304 64.4974 38.3569 64.5292C37.8833 64.5597 37.4326 64.7828 37.1202 65.1392C36.8073 65.4962 36.6458 65.9716 36.677 66.4458C36.7081 66.9187 36.9312 67.3694 37.2876 67.6818C37.6446 67.9947 38.12 68.1562 38.5929 68.1251C39.0671 68.0939 39.5172 67.8714 39.8302 67.5144Z" fill="#444444"/>
<path fill-rule="evenodd" clip-rule="evenodd" d="M52.8907 52.6135L52.8966 52.6067C53.5511 51.86 53.4742 50.7231 52.7263 50.0675C51.9784 49.4119 50.8412 49.4847 50.1867 50.2315L50.1807 50.2382C49.5268 50.9843 49.6031 52.1219 50.3511 52.7775C51.099 53.433 52.2368 53.3596 52.8907 52.6135Z" fill="#444444"/>
<path fill-rule="evenodd" clip-rule="evenodd" d="M46.5567 59.84L46.5626 59.8333C47.2166 59.0872 47.1403 57.9496 46.3923 57.2941C45.6444 56.6385 44.5066 56.712 43.8527 57.4581L43.8468 57.4648C43.1928 58.2109 43.2691 59.3485 44.0171 60.004C44.765 60.6596 45.9028 60.5861 46.5567 59.84Z" fill="#444444"/>
<path fill-rule="evenodd" clip-rule="evenodd" d="M59.6231 44.9304C59.9355 44.5741 60.0976 44.098 60.0658 43.6245C60.0353 43.1509 59.8128 42.7008 59.4558 42.3878C59.0994 42.0755 58.6234 41.9134 58.1499 41.9452C57.6763 41.9757 57.2255 42.1988 56.9132 42.5552C56.6003 42.9122 56.4388 43.3876 56.47 43.8618C56.5011 44.3347 56.7242 44.7854 57.0806 45.0978C57.4376 45.4107 57.913 45.5722 58.3859 45.5411C58.8601 45.5099 59.3102 45.2874 59.6231 44.9304Z" fill="#444444"/>
<path fill-rule="evenodd" clip-rule="evenodd" d="M66.3536 37.2527C66.6666 36.8956 66.8281 36.4203 66.7968 35.9461C66.7657 35.4731 66.5433 35.023 66.1863 34.7101C65.8299 34.3977 65.3538 34.2356 64.8809 34.2668C64.4067 34.298 63.9566 34.5204 63.6437 34.8774C63.3313 35.2338 63.1692 35.7099 63.201 36.1834C63.2316 36.657 63.4547 37.1077 63.811 37.42C64.1681 37.733 64.6435 37.8945 65.117 37.8627C65.5906 37.8321 66.0413 37.609 66.3536 37.2527Z" fill="#444444"/>
<path fill-rule="evenodd" clip-rule="evenodd" d="M79.4141 22.3518L79.4201 22.345C80.0746 21.5982 79.9977 20.4614 79.2497 19.8058C78.5018 19.1502 77.3646 19.223 76.7101 19.9698L76.7042 19.9765C76.0503 20.7226 76.1266 21.8602 76.8745 22.5157C77.6225 23.1713 78.7602 23.0978 79.4141 22.3518Z" fill="#444444"/>
<path fill-rule="evenodd" clip-rule="evenodd" d="M72.6846 30.0295L72.6906 30.0227C73.3445 29.2767 73.2682 28.1391 72.5202 27.4835C71.7723 26.828 70.6345 26.9014 69.9806 27.6475L69.9747 27.6543C69.3208 28.4003 69.3971 29.5379 70.145 30.1935C70.893 30.849 72.0307 30.7756 72.6846 30.0295Z" fill="#444444"/>
<mask id="mask3_20_549" style="mask-type:luminance" maskUnits="userSpaceOnUse" x="81" y="11" width="7" height="6">
<path fill-rule="evenodd" clip-rule="evenodd" d="M81.9326 13.9297L84.4661 11.0392L87.3567 13.5728L84.8232 16.4633L81.9326 13.9297Z" fill="white"/>
</mask>
<g mask="url(#mask3_20_549)">
<path fill-rule="evenodd" clip-rule="evenodd" d="M86.09 15.018C86.4232 14.6378 86.5961 14.13 86.5622 13.625C86.5296 13.1198 86.2923 12.6397 85.9115 12.3059C85.5314 11.9727 85.0236 11.7998 84.5185 11.8337C84.0133 11.8663 83.5326 12.1043 83.1994 12.4844C82.8656 12.8652 82.6933 13.3723 82.7266 13.8781C82.7598 14.3826 82.9978 14.8633 83.3779 15.1965C83.7588 15.5303 84.2658 15.7025 84.7703 15.6693C85.2761 15.6361 85.7562 15.3988 86.09 15.018Z" fill="#444444"/>
</g>
<path fill-rule="evenodd" clip-rule="evenodd" d="M45.7013 72.6609C46.0136 72.3045 46.1757 71.8285 46.1446 71.3555C46.1134 70.8813 45.891 70.4312 45.5339 70.1183C45.1776 69.8059 44.7015 69.6438 44.228 69.6757C43.7544 69.7062 43.3037 69.9293 42.9913 70.2857C42.6784 70.6427 42.5169 71.1181 42.5481 71.5923C42.5792 72.0652 42.8023 72.5159 43.1587 72.8282C43.5157 73.1412 43.9911 73.3027 44.4647 73.2721C44.9382 73.2403 45.3883 73.0179 45.7013 72.6609Z" fill="#444444"/>
<path fill-rule="evenodd" clip-rule="evenodd" d="M58.7628 57.76L58.7687 57.7532C59.4232 57.0064 59.347 55.8702 58.5984 55.214C57.8504 54.5584 56.7133 54.6312 56.0587 55.378L56.0528 55.3847C55.3989 56.1308 55.4752 57.2684 56.2231 57.9239C56.9718 58.5801 58.1088 58.506 58.7628 57.76Z" fill="#444444"/>
<path fill-rule="evenodd" clip-rule="evenodd" d="M52.4288 64.9865L52.4347 64.9798C53.0886 64.2337 53.013 63.0967 52.2644 62.4406C51.5164 61.785 50.3787 61.8585 49.7248 62.6045L49.7188 62.6113C49.0649 63.3574 49.1412 64.4949 49.8892 65.1505C50.6378 65.8067 51.7749 65.7326 52.4288 64.9865Z" fill="#444444"/>
<path fill-rule="evenodd" clip-rule="evenodd" d="M65.4952 50.0769C65.8076 49.7205 65.9697 49.2445 65.9385 48.7716C65.9073 48.2974 65.6849 47.8472 65.3279 47.5343C64.9715 47.222 64.4954 47.0599 64.0219 47.0917C63.5483 47.1222 63.0976 47.3453 62.7853 47.7017C62.4723 48.0587 62.3108 48.5341 62.342 49.0083C62.3732 49.4812 62.5963 49.9319 62.9526 50.2443C63.3097 50.5572 63.7851 50.7187 64.2587 50.6882C64.7322 50.6564 65.1823 50.4339 65.4952 50.0769Z" fill="#444444"/>
<path fill-rule="evenodd" clip-rule="evenodd" d="M72.2247 42.3992C72.5376 42.0421 72.6992 41.5667 72.6686 41.0931C72.6368 40.6196 72.4144 40.1695 72.0574 39.8566C71.701 39.5442 71.2249 39.3821 70.752 39.4133C70.2778 39.4445 69.8277 39.6669 69.5148 40.0239C69.2024 40.3803 69.0403 40.8564 69.0721 41.3299C69.1027 41.8035 69.3258 42.2542 69.6821 42.5665C70.0392 42.8795 70.5145 43.041 70.9887 43.0098C71.4617 42.9786 71.9124 42.7555 72.2247 42.3992Z" fill="#444444"/>
<path fill-rule="evenodd" clip-rule="evenodd" d="M85.2862 27.4982L85.2921 27.4915C85.9466 26.7447 85.8704 25.6084 85.1218 24.9523C84.3739 24.2967 83.2367 24.3695 82.5822 25.1163L82.5763 25.123C81.9223 25.8691 81.9986 27.0067 82.7466 27.6622C83.4952 28.3184 84.6323 28.2443 85.2862 27.4982Z" fill="#444444"/>
<path fill-rule="evenodd" clip-rule="evenodd" d="M78.5557 35.176L78.5617 35.1692C79.2156 34.4231 79.14 33.2862 78.3913 32.63C77.6434 31.9744 76.5056 32.0479 75.8517 32.794L75.8458 32.8007C75.1919 33.5468 75.2682 34.6844 76.0161 35.34C76.7647 35.9961 77.9018 35.9221 78.5557 35.176Z" fill="#444444"/>
<mask id="mask4_20_549" style="mask-type:luminance" maskUnits="userSpaceOnUse" x="87" y="16" width="7" height="6">
<path fill-rule="evenodd" clip-rule="evenodd" d="M87.96 19.2129L90.4934 16.3224L93.384 18.856L90.8506 21.7465L87.96 19.2129Z" fill="white"/>
</mask>
<g mask="url(#mask4_20_549)">
<path fill-rule="evenodd" clip-rule="evenodd" d="M92.1174 20.3012C92.4505 19.921 92.6234 19.4132 92.5902 18.9088C92.5569 18.403 92.3197 17.9229 91.9388 17.5891C91.5587 17.2559 91.0509 17.083 90.5458 17.1169C90.0407 17.1495 89.5599 17.3875 89.2267 17.7676C88.893 18.1484 88.7207 18.6555 88.754 19.1613C88.7872 19.6658 89.0252 20.1465 89.4053 20.4797C89.7861 20.8135 90.2932 20.9858 90.7984 20.9532C91.3034 20.9193 91.7836 20.682 92.1174 20.3012Z" fill="#444444"/>
</g>
<mask id="mask5_20_549" style="mask-type:luminance" maskUnits="userSpaceOnUse" x="47" y="74" width="6" height="6">
<path fill-rule="evenodd" clip-rule="evenodd" d="M47.6758 76.7871L50.051 74.0772L52.7608 76.4523L50.3856 79.1622L47.6758 76.7871Z" fill="white"/>
</mask>
<g mask="url(#mask5_20_549)">
<path fill-rule="evenodd" clip-rule="evenodd" d="M51.5733 77.8074C51.8857 77.451 52.0478 76.9749 52.016 76.5014C51.9854 76.0278 51.7623 75.5771 51.406 75.2648C51.0489 74.9518 50.5736 74.7903 50.0994 74.8215C49.6264 74.8527 49.1757 75.0758 48.8634 75.4321C48.5505 75.7892 48.389 76.2646 48.4195 76.7382C48.4513 77.2117 48.6737 77.6618 49.0308 77.9747C49.3871 78.2871 49.8632 78.4492 50.3361 78.418C50.8103 78.3868 51.2604 78.1644 51.5733 77.8074Z" fill="#444444"/>
</g>
<mask id="mask6_20_549" style="mask-type:luminance" maskUnits="userSpaceOnUse" x="60" y="58" width="6" height="7">
<path fill-rule="evenodd" clip-rule="evenodd" d="M60.7363 61.8848L63.2762 58.9869L65.9861 61.362L63.4461 64.2599L60.7363 61.8848Z" fill="white"/>
</mask>
<g mask="url(#mask6_20_549)">
<path fill-rule="evenodd" clip-rule="evenodd" d="M64.7131 62.8147L64.7194 62.8075C65.4193 62.0089 65.3792 60.8301 64.6312 60.1745C63.8826 59.5184 62.7094 59.6337 62.0095 60.4322L62.0031 60.4395C61.3038 61.2373 61.3427 62.4162 62.0913 63.0724C62.8392 63.7279 64.0138 63.6125 64.7131 62.8147Z" fill="#444444"/>
</g>
<mask id="mask7_20_549" style="mask-type:luminance" maskUnits="userSpaceOnUse" x="54" y="66" width="6" height="6">
<path fill-rule="evenodd" clip-rule="evenodd" d="M54.2051 69.3379L56.745 66.4401L59.4548 68.8152L56.9149 71.713L54.2051 69.3379Z" fill="white"/>
</mask>
<g mask="url(#mask7_20_549)">
<path fill-rule="evenodd" clip-rule="evenodd" d="M58.1818 70.2678L58.1882 70.2606C58.8874 69.4628 58.8479 68.2832 58.1 67.6277C57.3513 66.9715 56.1775 67.0875 55.4782 67.8854L55.4719 67.8926C54.7726 68.6904 54.8114 69.8693 55.5601 70.5255C56.308 71.1811 57.4825 71.0656 58.1818 70.2678Z" fill="#444444"/>
</g>
<mask id="mask8_20_549" style="mask-type:luminance" maskUnits="userSpaceOnUse" x="67" y="51" width="6" height="6">
<path fill-rule="evenodd" clip-rule="evenodd" d="M67.2715 54.4297L69.8051 51.5391L72.5149 53.9142L69.9813 56.8048L67.2715 54.4297Z" fill="white"/>
</mask>
<g mask="url(#mask8_20_549)">
<path fill-rule="evenodd" clip-rule="evenodd" d="M71.2482 55.3596C71.5814 54.9795 71.7639 54.4801 71.7468 53.9898C71.7311 53.4994 71.5164 53.039 71.16 52.7267C70.803 52.4138 70.3192 52.2619 69.8302 52.3099C69.3426 52.3579 68.8714 52.6043 68.5383 52.9844C68.2045 53.3652 68.0226 53.8639 68.0384 54.3543C68.0554 54.8446 68.2694 55.3044 68.6265 55.6173C68.9828 55.9296 69.4673 56.0821 69.955 56.0342C70.4439 55.9861 70.9144 55.7404 71.2482 55.3596Z" fill="#444444"/>
</g>
<mask id="mask9_20_549" style="mask-type:luminance" maskUnits="userSpaceOnUse" x="73" y="43" width="7" height="7">
<path fill-rule="evenodd" clip-rule="evenodd" d="M73.9619 46.7969L76.4955 43.9063L79.2053 46.2814L76.6717 49.172L73.9619 46.7969Z" fill="white"/>
</mask>
<g mask="url(#mask9_20_549)">
<path fill-rule="evenodd" clip-rule="evenodd" d="M77.9387 47.7268C78.2725 47.346 78.4543 46.8473 78.4379 46.3563C78.4215 45.8665 78.2068 45.4062 77.8505 45.0939C77.4934 44.7809 77.0096 44.6291 76.5213 44.6764C76.033 44.725 75.5625 44.9707 75.2287 45.3516C74.8955 45.7317 74.713 46.2311 74.7294 46.7208C74.7459 47.2118 74.9599 47.6716 75.3169 47.9845C75.6732 48.2968 76.1577 48.4493 76.646 48.4007C77.1344 48.3533 77.6055 48.1069 77.9387 47.7268Z" fill="#444444"/>
</g>
<mask id="mask10_20_549" style="mask-type:luminance" maskUnits="userSpaceOnUse" x="87" y="28" width="6" height="7">
<path fill-rule="evenodd" clip-rule="evenodd" d="M87.0234 31.8945L89.5633 28.9967L92.2732 31.3718L89.7333 34.2696L87.0234 31.8945Z" fill="white"/>
</mask>
<g mask="url(#mask10_20_549)">
<path fill-rule="evenodd" clip-rule="evenodd" d="M91.0002 32.8245L91.0065 32.8172C91.7064 32.0187 91.6663 30.8399 90.9183 30.1843C90.1697 29.5281 88.9965 29.6435 88.2966 30.442L88.2902 30.4492C87.591 31.247 87.6298 32.426 88.3784 33.0821C89.1264 33.7377 90.3009 33.6223 91.0002 32.8245Z" fill="#444444"/>
</g>
<mask id="mask11_20_549" style="mask-type:luminance" maskUnits="userSpaceOnUse" x="80" y="36" width="6" height="6">
<path fill-rule="evenodd" clip-rule="evenodd" d="M80.4912 39.3477L83.0311 36.4498L85.7409 38.8249L83.201 41.7228L80.4912 39.3477Z" fill="white"/>
</mask>
<g mask="url(#mask11_20_549)">
<path fill-rule="evenodd" clip-rule="evenodd" d="M84.4679 40.2776L84.4743 40.2704C85.1736 39.4725 85.134 38.293 84.3861 37.6374C83.6375 36.9813 82.4636 37.0973 81.7643 37.8951L81.758 37.9023C81.0587 38.7002 81.0976 39.8791 81.8462 40.5353C82.5941 41.1908 83.7687 41.0754 84.4679 40.2776Z" fill="#444444"/>
</g>
<mask id="mask12_20_549" style="mask-type:luminance" maskUnits="userSpaceOnUse" x="93" y="21" width="6" height="6">
<path fill-rule="evenodd" clip-rule="evenodd" d="M93.7168 24.2578L96.2502 21.3673L98.9601 23.7425L96.4266 26.6329L93.7168 24.2578Z" fill="white"/>
</mask>
<g mask="url(#mask12_20_549)">
<path fill-rule="evenodd" clip-rule="evenodd" d="M97.6935 25.1877C98.0267 24.8076 98.2092 24.3082 98.1921 23.8179C98.1764 23.3275 97.9617 22.8672 97.6053 22.5548C97.2483 22.2419 96.7645 22.09 96.2755 22.1381C95.7879 22.186 95.3168 22.4324 94.9836 22.8125C94.6498 23.1933 94.4679 23.692 94.4837 24.1824C94.5007 24.6728 94.7147 25.1325 95.0718 25.4454C95.4281 25.7578 95.9126 25.9102 96.4003 25.8623C96.8892 25.8143 97.3597 25.5686 97.6935 25.1877Z" fill="#444444"/>
</g>
</g>
</svg>
