<svg width="50" height="50" viewBox="0 0 50 50" fill="none" xmlns="http://www.w3.org/2000/svg">
<rect width="50" height="50" rx="10" fill="#F39C12"/>
<path d="M25 10.0001C26.9891 10.0001 28.8968 10.7903 30.3033 12.1968C31.7098 13.6033 32.5 15.511 32.5 17.5001C32.5 19.4892 31.7098 21.3969 30.3033 22.8034C28.8968 24.2099 26.9891 25.0001 25 25.0001C23.0109 25.0001 21.1032 24.2099 19.6967 22.8034C18.2902 21.3969 17.5 19.4892 17.5 17.5001C17.5 15.511 18.2902 13.6033 19.6967 12.1968C21.1032 10.7903 23.0109 10.0001 25 10.0001ZM25 28.7501C33.2875 28.7501 40 32.1064 40 36.2501V40.0001H10V36.2501C10 32.1064 16.7125 28.7501 25 28.7501Z" fill="white"/>
</svg>
