<svg width="50" height="50" viewBox="0 0 50 50" fill="none" xmlns="http://www.w3.org/2000/svg">
<rect width="50" height="50" rx="10" fill="#F39C12"/>
<path d="M24.507 9.99988C23.8508 9.99988 23.201 10.1291 22.5947 10.3803C21.9885 10.6314 21.4376 10.9994 20.9736 11.4635C20.5096 11.9275 20.1415 12.4783 19.8904 13.0846C19.6392 13.6909 19.51 14.3407 19.51 14.9969C19.51 15.6531 19.6392 16.3029 19.8904 16.9091C20.1415 17.5154 20.5096 18.0663 20.9736 18.5303C21.4376 18.9943 21.9885 19.3624 22.5947 19.6135C23.201 19.8646 23.8508 19.9939 24.507 19.9939C25.8323 19.9939 27.1033 19.4674 28.0404 18.5303C28.9775 17.5932 29.504 16.3222 29.504 14.9969C29.504 13.6716 28.9775 12.4006 28.0404 11.4635C27.1033 10.5263 25.8323 9.99988 24.507 9.99988ZM35.7615 12.4959C34.7665 12.4959 33.8123 12.8911 33.1088 13.5947C32.4052 14.2982 32.01 15.2524 32.01 16.2474C32.01 17.2423 32.4052 18.1965 33.1088 18.9001C33.8123 19.6036 34.7665 19.9989 35.7615 19.9989C36.7564 19.9989 37.7106 19.6036 38.4142 18.9001C39.1177 18.1965 39.513 17.2423 39.513 16.2474C39.513 15.2524 39.1177 14.2982 38.4142 13.5947C37.7106 12.8911 36.7564 12.4959 35.7615 12.4959ZM13.2525 12.4959C12.2575 12.4959 11.3033 12.8911 10.5998 13.5947C9.89624 14.2982 9.501 15.2524 9.501 16.2474C9.501 17.2423 9.89624 18.1965 10.5998 18.9001C11.3033 19.6036 12.2575 19.9989 13.2525 19.9989C14.2475 19.9989 15.2017 19.6036 15.9052 18.9001C16.6087 18.1965 17.004 17.2423 17.004 16.2474C17.004 15.2524 16.6087 14.2982 15.9052 13.5947C15.2017 12.8911 14.2475 12.4959 13.2525 12.4959ZM17.004 24.9834C17.0086 24.3231 17.2741 23.6914 17.7427 23.2262C18.2112 22.7609 18.8447 22.4998 19.505 22.4999H29.509C30.1723 22.4999 30.8084 22.7634 31.2775 23.2324C31.7465 23.7014 32.01 24.3376 32.01 25.0009V32.5039C32.0106 33.291 31.8874 34.0734 31.6448 34.8223C31.091 36.5197 29.9503 37.9641 28.4273 38.8962C26.9044 39.8282 25.0991 40.1868 23.3356 39.9075C21.5721 39.6282 19.9659 38.7294 18.8054 37.3725C17.645 36.0155 17.0062 34.2893 17.004 32.5039V24.9834ZM14.503 25.0009C14.503 24.088 14.7456 23.2352 15.1733 22.4999H9.501C8.83769 22.4999 8.20155 22.7634 7.73253 23.2324C7.2635 23.7014 7 24.3376 7 25.0009V31.2534C6.99966 32.277 7.25067 33.2851 7.73097 34.1891C8.21128 35.0931 8.9062 35.8654 9.7547 36.438C10.6032 37.0107 11.5793 37.3663 12.5974 37.4735C13.6154 37.5808 14.6442 37.4364 15.5934 37.0532C14.8751 35.6435 14.5014 34.0835 14.503 32.5014V25.0009ZM34.511 25.0009V32.5039C34.511 34.142 34.1183 35.6876 33.4205 37.0532C34.3698 37.4364 35.3986 37.5808 36.4166 37.4735C37.4346 37.3663 38.4108 37.0107 39.2593 36.438C40.1078 35.8654 40.8027 35.0931 41.283 34.1891C41.7633 33.2851 42.0143 32.277 42.014 31.2534V25.0009C42.014 24.3376 41.7505 23.7014 41.2814 23.2324C40.8124 22.7634 40.1763 22.4999 39.513 22.4999H33.8407C34.2659 23.2352 34.511 24.088 34.511 25.0009Z" fill="white"/>
</svg>
