<svg width="13" height="14" viewBox="0 0 13 14" fill="none" xmlns="http://www.w3.org/2000/svg">
<path d="M6.33263 0C9.83014 0 12.6653 2.83512 12.6653 6.33263C12.6653 9.83014 9.83014 12.6653 6.33263 12.6653C2.83512 12.6653 0 9.83014 0 6.33263C0 2.83512 2.83512 0 6.33263 0ZM6.33263 1.26653C4.98902 1.26653 3.70043 1.80027 2.75035 2.75035C1.80027 3.70043 1.26653 4.98902 1.26653 6.33263C1.26653 7.67624 1.80027 8.96483 2.75035 9.91491C3.70043 10.865 4.98902 11.3987 6.33263 11.3987C7.67624 11.3987 8.96483 10.865 9.91491 9.91491C10.865 8.96483 11.3987 7.67624 11.3987 6.33263C11.3987 4.98902 10.865 3.70043 9.91491 2.75035C8.96483 1.80027 7.67624 1.26653 6.33263 1.26653ZM6.3263 5.0661C6.67966 5.0661 6.96589 5.35234 6.96589 5.7057V8.95054C7.08661 9.02024 7.18096 9.12783 7.2343 9.25662C7.28764 9.38541 7.297 9.5282 7.26092 9.66285C7.22484 9.79749 7.14534 9.91648 7.03475 10.0013C6.92416 10.0862 6.78866 10.1322 6.64926 10.1322H6.33896C6.25497 10.1322 6.1718 10.1157 6.0942 10.0835C6.0166 10.0514 5.94609 10.0043 5.8867 9.94487C5.82731 9.88548 5.7802 9.81497 5.74805 9.73738C5.71591 9.65978 5.69937 9.5766 5.69937 9.49261V6.33263C5.53141 6.33263 5.37034 6.26591 5.25158 6.14715C5.13282 6.02839 5.0661 5.86732 5.0661 5.69937C5.0661 5.53141 5.13282 5.37034 5.25158 5.25158C5.37034 5.13282 5.53141 5.0661 5.69937 5.0661H6.3263ZM6.33263 3.16632C6.50058 3.16632 6.66165 3.23303 6.78041 3.35179C6.89917 3.47055 6.96589 3.63163 6.96589 3.79958C6.96589 3.96753 6.89917 4.1286 6.78041 4.24736C6.66165 4.36612 6.50058 4.43284 6.33263 4.43284C6.16468 4.43284 6.00361 4.36612 5.88485 4.24736C5.76609 4.1286 5.69937 3.96753 5.69937 3.79958C5.69937 3.63163 5.76609 3.47055 5.88485 3.35179C6.00361 3.23303 6.16468 3.16631 6.33263 3.16632Z" fill="black"/>
</svg>
