<svg width="359" height="15" viewBox="0 0 359 15" fill="none" xmlns="http://www.w3.org/2000/svg">
<path d="M352.834 3.04661C352.888 1.57487 354.126 0.426116 355.598 0.480805C357.069 0.535495 358.218 1.77291 358.163 3.24466C358.109 4.7164 356.871 5.86515 355.4 5.81046C353.928 5.75577 352.779 4.51835 352.834 3.04661ZM1.01857 9.48667C134.769 14.4568 221.704 14.3518 276.034 12.2025C303.199 11.1278 322.205 9.5423 334.832 7.82633C341.147 6.96821 345.856 6.0788 349.188 5.20744C350.854 4.77169 352.167 4.34282 353.159 3.92858C354.161 3.51048 354.8 3.12223 355.153 2.78461L355.844 3.50665C355.359 3.97181 354.585 4.4171 353.544 4.85146C352.494 5.28967 351.134 5.73218 349.441 6.1749C346.054 7.06048 341.301 7.95637 334.967 8.81722C322.296 10.5392 303.255 12.1264 276.073 13.2017C221.708 15.3524 134.745 15.4566 0.981433 10.486L1.01857 9.48667Z" fill="#F39C12"/>
</svg>
