<svg width="71" height="70" viewBox="0 0 71 70" fill="none" xmlns="http://www.w3.org/2000/svg">
<path d="M6.43127 12.3792C6.43127 11.8521 6.86139 11.4219 7.38857 11.4219C7.91563 11.4219 8.34574 11.852 8.34574 12.3792C8.34574 12.9062 7.91563 13.3363 7.38857 13.3363C6.86139 13.3363 6.43127 12.9062 6.43127 12.3792ZM10.7252 13.3363C11.2522 13.3363 11.6824 12.9062 11.6824 12.3792C11.6824 11.8521 11.2522 11.4219 10.7252 11.4219C10.1981 11.4219 9.76789 11.852 9.76789 12.3792C9.76789 12.9062 10.1981 13.3363 10.7252 13.3363ZM14.062 13.3363C14.589 13.3363 15.0191 12.9062 15.0191 12.3792C15.0191 11.8521 14.589 11.4219 14.062 11.4219C13.5349 11.4219 13.1048 11.852 13.1048 12.3792C13.1048 12.9062 13.5349 13.3363 14.062 13.3363ZM21.1192 18.9406C20.5907 18.9406 20.1622 19.369 20.1622 19.8976V52.4438C20.1622 52.9723 20.5907 53.4008 21.1192 53.4008C21.6478 53.4008 22.0763 52.9723 22.0763 52.4438V19.8976C22.0763 19.3689 21.6478 18.9406 21.1192 18.9406ZM15.8099 20.4404H7.38844C6.85988 20.4404 6.43141 20.8688 6.43141 21.3974C6.43141 21.926 6.85988 22.3544 7.38844 22.3544H15.8099C16.3385 22.3544 16.7669 21.926 16.7669 21.3974C16.7669 20.8688 16.3385 20.4404 15.8099 20.4404ZM15.8099 24.6607H7.38844C6.85988 24.6607 6.43141 25.0892 6.43141 25.6178C6.43141 26.1463 6.85988 26.5748 7.38844 26.5748H15.8099C16.3385 26.5748 16.7669 26.1463 16.7669 25.6178C16.7669 25.0892 16.3385 24.6607 15.8099 24.6607ZM15.8099 28.8811H7.38844C6.85988 28.8811 6.43141 29.3096 6.43141 29.8381C6.43141 30.3667 6.85988 30.7952 7.38844 30.7952H15.8099C16.3385 30.7952 16.7669 30.3667 16.7669 29.8381C16.7669 29.3096 16.3385 28.8811 15.8099 28.8811ZM15.8099 33.1015H7.38844C6.85988 33.1015 6.43141 33.53 6.43141 34.0585C6.43141 34.5871 6.85988 35.0155 7.38844 35.0155H15.8099C16.3385 35.0155 16.7669 34.5871 16.7669 34.0585C16.7669 33.53 16.3385 33.1015 15.8099 33.1015ZM15.8099 37.3219H7.38844C6.85988 37.3219 6.43141 37.7503 6.43141 38.2789C6.43141 38.8074 6.85988 39.2359 7.38844 39.2359H15.8099C16.3385 39.2359 16.7669 38.8074 16.7669 38.2789C16.7669 37.7503 16.3385 37.3219 15.8099 37.3219ZM15.8099 41.5461H7.38844C6.85988 41.5461 6.43141 41.9745 6.43141 42.5031C6.43141 43.0316 6.85988 43.4601 7.38844 43.4601H15.8099C16.3385 43.4601 16.7669 43.0316 16.7669 42.5031C16.7669 41.9745 16.3385 41.5461 15.8099 41.5461ZM15.8099 45.7666H7.38844C6.85988 45.7666 6.43141 46.195 6.43141 46.7236C6.43141 47.2521 6.85988 47.6806 7.38844 47.6806H15.8099C16.3385 47.6806 16.7669 47.2521 16.7669 46.7236C16.7669 46.195 16.3385 45.7666 15.8099 45.7666ZM15.8099 49.9869H7.38844C6.85988 49.9869 6.43141 50.4154 6.43141 50.944C6.43141 51.4725 6.85988 51.901 7.38844 51.901H15.8099C16.3385 51.901 16.7669 51.4725 16.7669 50.944C16.7669 50.4154 16.3385 49.9869 15.8099 49.9869ZM44.8522 27.381V27.8693C44.8522 29.2265 43.901 30.3636 42.6308 30.6548L44.2805 33.5983C44.5389 34.0595 44.3745 34.6427 43.9134 34.9011C43.7655 34.984 43.6048 35.0235 43.4465 35.0235C43.1114 35.0235 42.7862 34.8472 42.6107 34.5342L40.4782 30.7293H39.4342V34.0663C39.4342 34.5949 39.0057 35.0233 38.4772 35.0233C37.9486 35.0233 37.5202 34.5949 37.5202 34.0663V25.4783C37.5202 24.9498 37.9486 24.5213 38.4772 24.5213H41.9922C43.5694 24.5212 44.8522 25.8041 44.8522 27.381ZM42.9382 27.381C42.9382 26.8595 42.5138 26.4352 41.9924 26.4352H39.4344V28.8152H41.9924C42.5138 28.8152 42.9382 28.3908 42.9382 27.8694V27.381ZM46.9803 35.0232C47.5088 35.0232 47.9373 34.5947 47.9373 34.0662V28.0898L49.885 30.3905C50.0668 30.6053 50.334 30.7291 50.6155 30.7291C50.897 30.7291 51.1641 30.6053 51.346 30.3905L53.2935 28.0898V34.066C53.2935 34.5946 53.722 35.0231 54.2506 35.0231C54.7791 35.0231 55.2076 34.5946 55.2076 34.066V25.478C55.2076 25.0765 54.9569 24.7176 54.5798 24.5794C54.2031 24.4413 53.7794 24.5533 53.5201 24.8597L50.6155 28.2909L47.7108 24.8597C47.4514 24.5531 47.028 24.4412 46.6511 24.5794C46.274 24.7176 46.0232 25.0765 46.0232 25.478V34.066C46.0232 34.5949 46.4517 35.0232 46.9803 35.0232ZM31.4939 26.4352H32.9432C33.5695 26.4352 34.0791 26.9448 34.0791 27.5709C34.0791 28.0995 34.5076 28.528 35.0361 28.528C35.5647 28.528 35.9931 28.0995 35.9931 27.5709C35.9931 25.8893 34.625 24.5212 32.9432 24.5212H31.4939C29.8121 24.5212 28.4439 25.8893 28.4439 27.5709V31.9774C28.4439 33.6568 29.8121 35.0232 31.4939 35.0232H32.9432C34.625 35.0232 35.9931 33.6568 35.9931 31.9774C35.9931 31.4488 35.5647 31.0204 35.0361 31.0204C34.5076 31.0204 34.0791 31.4488 34.0791 31.9774C34.0791 32.6014 33.5695 33.1091 32.9432 33.1091H31.4939C30.8676 33.1091 30.358 32.6014 30.358 31.9774V27.5709C30.3581 26.9448 30.8676 26.4352 31.4939 26.4352ZM68.9346 48.7465V52.4127C68.9346 52.8643 68.6188 53.2545 68.1771 53.3487L66.3976 53.7282L65.8842 54.9654L66.8737 56.4923C67.1192 56.8711 67.0666 57.3702 66.7473 57.6895L64.1546 60.2823C63.8351 60.6016 63.3363 60.6541 62.9572 60.4086L61.4297 59.4185L60.1933 59.9294L59.8138 61.7115C59.7197 62.1534 59.3294 62.4692 58.8777 62.4692H55.2116C54.7598 62.4692 54.3696 62.1533 54.2754 61.7115L53.8961 59.9294L52.6597 59.4185L51.132 60.4086C50.7532 60.6541 50.2541 60.6016 49.9346 60.2823L47.3419 57.6895C47.1599 57.5077 47.068 57.2673 47.065 57.0243H4.69494C2.72496 57.0243 1.12207 55.4231 1.12207 53.4552V11.1041C1.12207 9.134 2.72496 7.53125 4.69494 7.53125H59.9204C61.8905 7.53125 63.4934 9.134 63.4934 11.1041V40.6001C63.7352 40.6041 63.9739 40.6961 64.1547 40.877L66.7475 43.4695C67.0669 43.7888 67.1196 44.2878 66.8739 44.6668L65.8845 46.1937L66.3979 47.4308L68.1774 47.8104C68.6188 47.9047 68.9346 48.2949 68.9346 48.7465ZM3.03613 11.1041V15.3131H61.5792V11.1041C61.5792 10.1895 60.8351 9.44531 59.9203 9.44531H4.69494C3.78016 9.44518 3.03613 10.1893 3.03613 11.1041ZM4.69494 55.1102H48.1142L48.2088 54.9646L47.6957 53.7282L45.9163 53.3487C45.4747 53.2545 45.1589 52.8643 45.1589 52.4127V48.7465C45.1589 48.2949 45.4747 47.9047 45.9163 47.8105L47.6957 47.431L48.2088 46.1946L47.2164 44.6679C46.97 44.2889 47.0224 43.7892 47.3422 43.4695L49.9349 40.877C50.2543 40.5576 50.7534 40.5051 51.132 40.7506L52.6598 41.7407L53.8962 41.2298L54.2756 39.4477C54.3696 39.006 54.76 38.69 55.2117 38.69H58.8778C59.3295 38.69 59.7197 39.0058 59.8139 39.4477L60.1935 41.2298L61.4298 41.7407L61.5792 41.6439V17.2271H3.03613V53.4551C3.03613 54.3678 3.78016 55.1102 4.69494 55.1102ZM67.0205 49.5209L65.5069 49.1981C65.199 49.1324 64.9432 48.9196 64.8225 48.6289L63.9236 46.4625C63.8027 46.1715 63.8329 45.8396 64.0044 45.5752L64.8465 44.2755L63.3488 42.7778L62.0491 43.6201C61.7851 43.7912 61.4539 43.8215 61.1632 43.7014L58.9969 42.8062C58.7055 42.6857 58.4921 42.4295 58.4264 42.1211L58.1033 40.6039H55.9865L55.6636 42.1211C55.5979 42.4295 55.3844 42.6857 55.093 42.8062L52.9264 43.7014C52.6361 43.8215 52.3045 43.7912 52.0405 43.6201L50.741 42.7778L49.2441 44.2747L50.0887 45.5739C50.2607 45.8385 50.2911 46.1708 50.1702 46.4623L49.2713 48.6288C49.1505 48.9194 48.8947 49.1323 48.5869 49.1979L47.0734 49.5207V51.6381L48.5869 51.9609C48.8947 52.0265 49.1505 52.2394 49.2713 52.53L50.1702 54.6965C50.2912 54.988 50.2607 55.3203 50.0887 55.5849L49.2441 56.8843L50.741 58.3812L52.0405 57.5389C52.3046 57.3677 52.6358 57.3373 52.9266 57.4575L55.093 58.3528C55.3845 58.4732 55.5978 58.7294 55.6636 59.0379L55.9865 60.555H58.1033L58.4264 59.0379C58.492 58.7294 58.7055 58.4732 58.9969 58.3528L61.1632 57.4575C61.4541 57.3373 61.7854 57.3678 62.0493 57.5389L63.3488 58.3812L64.8465 56.8834L64.0044 55.5838C63.8329 55.3192 63.8027 54.9874 63.9236 54.6965L64.8225 52.53C64.9432 52.2394 65.199 52.0265 65.5069 51.9609L67.0205 51.6382V49.5209ZM62.691 50.5796C62.691 53.693 60.1582 56.226 57.0448 56.226C53.9315 56.226 51.3983 53.6931 51.3983 50.5796C51.3983 47.4661 53.9313 44.9333 57.0448 44.9333C60.1582 44.9333 62.691 47.4662 62.691 50.5796ZM60.777 50.5796C60.777 48.5216 59.1027 46.8473 57.0448 46.8473C54.9868 46.8473 53.3124 48.5216 53.3124 50.5796C53.3124 52.6376 54.9868 54.3119 57.0448 54.3119C59.1027 54.3119 60.777 52.6376 60.777 50.5796Z" fill="white"/>
</svg>
