<svg width="71" height="70" viewBox="0 0 71 70" fill="none" xmlns="http://www.w3.org/2000/svg">
<path fill-rule="evenodd" clip-rule="evenodd" d="M15.0799 32.9546C16.2206 32.9546 17.1489 33.8838 17.1489 35.0243C17.1489 36.1649 16.2206 37.0934 15.0799 37.0934C13.9393 37.0934 13.0118 36.1651 13.0118 35.0243C13.0118 33.8836 13.9393 32.9546 15.0799 32.9546ZM28.4179 19.7874C29.5585 19.7874 30.4862 20.7158 30.4862 21.8564C30.4862 22.9971 29.5587 23.9263 28.4179 23.9263C27.2765 23.9263 26.349 22.9971 26.349 21.8564C26.349 20.7158 27.2765 19.7874 28.4179 19.7874ZM41.7718 32.9546C42.9124 32.9546 43.8408 33.8838 43.8408 35.0243C43.8408 36.1649 42.9124 37.0934 41.7718 37.0934C40.6311 37.0934 39.7028 36.1651 39.7028 35.0243C39.7028 33.8836 40.6311 32.9546 41.7718 32.9546ZM55.1082 19.7874C56.2488 19.7874 57.1772 20.7158 57.1772 21.8564C57.1772 22.9971 56.2488 23.9263 55.1082 23.9263C53.9677 23.9263 53.0392 22.9971 53.0392 21.8564C53.0393 20.7158 53.9677 19.7874 55.1082 19.7874ZM15.0799 39.0054C18.1814 39.0054 20.0669 35.61 18.5009 32.99L26.3399 25.2501C27.6146 26.0344 29.2225 26.0351 30.4969 25.2493L38.3491 32.9925C36.7866 35.6186 38.6762 39.0054 41.7718 39.0054C44.8639 39.0054 46.7623 35.623 45.192 32.99L53.0302 25.2501C55.6635 26.8679 59.0884 24.9709 59.0884 21.8562C59.0884 19.6617 57.3027 17.876 55.1082 17.876C52.0169 17.876 50.1175 21.2573 51.688 23.8906L43.849 31.6305C42.5746 30.8452 40.9656 30.8465 39.6913 31.6313L31.8391 23.888C33.4049 21.2626 31.5135 17.876 28.4181 17.876C25.328 17.876 23.4279 21.2534 24.997 23.8906L17.158 31.6305C14.5311 30.0142 11.0998 31.905 11.0998 35.0242C11.0997 37.2188 12.8854 39.0054 15.0799 39.0054ZM51.9977 58.3555V31.8874H58.2707V58.3555H51.9977ZM38.6531 58.3555V44.0759H44.9252V58.3556L38.6531 58.3555ZM25.3076 58.3555V34.2009H31.5814V58.3555H25.3076ZM11.9636 58.3555V46.9228H18.2357V58.3555H11.9636ZM20.1479 54.443H23.3954V58.3555H20.1479V54.443ZM33.4934 54.443H36.7409V58.3555H33.4934V54.443ZM46.8373 54.443H50.0857V58.3555H46.8373V54.443ZM8.59953 52.5311H10.0515V45.9673C10.0515 45.4395 10.4802 45.0108 11.0071 45.0108H19.1922C19.7192 45.0108 20.1479 45.4395 20.1479 45.9673V52.5311H23.3954V33.2452C23.3954 32.7157 23.8241 32.2887 24.3519 32.2887H32.537C33.0648 32.2887 33.4935 32.7157 33.4935 33.2452V52.5309H36.7411V43.1193C36.7411 42.5915 37.1689 42.1636 37.6967 42.1636H45.881C46.4104 42.1636 46.8375 42.5915 46.8375 43.1193V52.5309H50.0859V30.9317C50.0859 30.4039 50.5146 29.9761 51.0424 29.9761H59.2266C59.7544 29.9761 60.1831 30.4039 60.1831 30.9317V52.5309H61.6343C62.9971 52.5309 64.1063 51.4225 64.1063 50.0589V14.1165C64.1063 12.7544 62.9971 11.6443 61.6343 11.6443H8.59953C7.23747 11.6443 6.12671 12.7544 6.12671 14.1165V50.0589C6.12671 51.4225 7.23747 52.5311 8.59953 52.5311ZM65.7085 58.3555H60.1828V54.443H61.6341C64.0507 54.443 66.0182 52.4765 66.0182 50.0589V14.1165C66.0182 11.6989 64.0507 9.73236 61.6341 9.73236H8.59953C6.18285 9.73236 4.21543 11.6989 4.21543 14.1165V50.0589C4.21543 52.4765 6.18285 54.443 8.59953 54.443H10.0515V58.3555H4.52595C3.99815 58.3555 3.57031 58.7833 3.57031 59.3111C3.57031 59.8398 3.99815 60.2676 4.52595 60.2676H65.7083C66.2353 60.2676 66.664 59.8398 66.664 59.3111C66.6641 58.7833 66.2353 58.3555 65.7085 58.3555Z" fill="white"/>
</svg>
