<svg width="71" height="70" viewBox="0 0 71 70" fill="none" xmlns="http://www.w3.org/2000/svg">
<path d="M62.4425 19.9507H57.9031V18.7947C57.9031 15.6022 56.0046 12.8447 53.2894 11.5719C54.7213 10.5326 55.6652 8.83558 55.6652 6.9371C55.6652 3.77649 53.0879 1.19922 49.9273 1.19922C46.7667 1.19922 44.1894 3.77649 44.1894 6.9371C44.1894 8.84619 45.1228 10.5326 46.5652 11.5719C45.0061 12.3038 43.7228 13.5129 42.9061 15.0189C42.0894 13.5129 40.8061 12.3038 39.247 11.5719C40.6788 10.5326 41.6228 8.83558 41.6228 6.9371C41.6228 3.77649 39.0455 1.19922 35.8849 1.19922C32.7243 1.19922 30.147 3.77649 30.147 6.9371C30.147 8.84619 31.0804 10.5326 32.5228 11.5719C30.9637 12.3038 29.6803 13.5129 28.8637 15.0189C28.047 13.5129 26.7637 12.3038 25.2046 11.5719C26.6364 10.5326 27.5804 8.83558 27.5804 6.9371C27.5804 3.77649 25.0031 1.19922 21.8425 1.19922C18.6819 1.19922 16.1046 3.77649 16.1046 6.9371C16.1046 8.84619 17.0379 10.5326 18.4804 11.5719C15.7546 12.8447 13.8667 15.6022 13.8667 18.7947V19.9507H9.2849C8.77581 19.9507 8.35156 20.3644 8.35156 20.8841V25.6144C8.35156 26.1235 8.7652 26.5477 9.2849 26.5477H12.6152L30.1682 45.2038C30.2955 45.5644 30.6349 45.8189 31.0485 45.8189C31.5576 45.8189 31.9819 45.4053 31.9819 44.8856V44.7689C31.9819 44.5356 31.897 44.3022 31.7273 44.1325L15.1607 26.5371H56.5667L40.0107 44.1325C39.8516 44.3022 39.7561 44.5356 39.7561 44.7689V44.8856C39.7561 45.3947 40.1697 45.8189 40.6894 45.8189C41.0925 45.8189 41.4425 45.5644 41.5697 45.2038L59.1228 26.5477H62.4425C62.9516 26.5477 63.3758 26.1341 63.3758 25.6144V20.8841C63.3652 20.375 62.9516 19.9507 62.4425 19.9507ZM46.0349 6.9371C46.0349 4.79467 47.7743 3.05528 49.9167 3.05528C52.0591 3.05528 53.7985 4.79467 53.7985 6.9371C53.7985 9.07952 52.0591 10.8189 49.9167 10.8189C47.7743 10.8189 46.0349 9.07952 46.0349 6.9371ZM49.9167 12.675C53.3 12.675 56.047 15.4219 56.047 18.8053V19.9613H43.85V18.8053C43.85 18.6144 43.8394 18.4341 43.8182 18.2432C44.1046 15.125 46.7243 12.675 49.9167 12.675ZM31.9819 6.9371C31.9819 4.79467 33.7213 3.05528 35.8637 3.05528C38.0061 3.05528 39.7455 4.79467 39.7455 6.9371C39.7455 9.07952 38.0061 10.8189 35.8637 10.8189C33.7213 10.8189 31.9819 9.07952 31.9819 6.9371ZM35.8637 12.675C39.0561 12.675 41.6758 15.125 41.9622 18.2432C41.9516 18.4235 41.9304 18.6144 41.9304 18.8053V19.9613H29.797V18.8053C29.797 18.6144 29.7864 18.4341 29.7652 18.2432C30.0516 15.125 32.6713 12.675 35.8637 12.675ZM17.9288 6.9371C17.9288 4.79467 19.6682 3.05528 21.8107 3.05528C23.9531 3.05528 25.6925 4.79467 25.6925 6.9371C25.6925 9.07952 23.9531 10.8189 21.8107 10.8189C19.6682 10.8189 17.9288 9.07952 17.9288 6.9371ZM15.691 18.7947C15.691 15.4219 18.4379 12.6644 21.8213 12.6644C25.0137 12.6644 27.6334 15.1144 27.9197 18.2326C27.9091 18.4129 27.8879 18.6038 27.8879 18.7947V19.9507H15.691V18.7947ZM61.5091 24.681H10.2182V21.8068H61.5197V24.681H61.5091Z" fill="white"/>
<path d="M35.8641 47.3242C29.9459 47.3242 25.1201 52.1394 25.1201 58.0682C25.1201 63.9863 29.9353 68.8121 35.8641 68.8121C41.7928 68.8121 46.608 63.9969 46.608 58.0682C46.608 52.15 41.7928 47.3242 35.8641 47.3242ZM35.8641 66.956C30.9641 66.956 26.9762 62.9682 26.9762 58.0682C26.9762 53.1682 30.9641 49.1803 35.8641 49.1803C40.7641 49.1803 44.7519 53.1682 44.7519 58.0682C44.7519 62.9682 40.7641 66.956 35.8641 66.956Z" fill="white"/>
<path d="M35.8632 54.1869C36.6799 54.1869 37.3375 54.8551 37.3375 55.6611C37.3375 56.1702 37.7511 56.5945 38.2708 56.5945C38.7905 56.5945 39.2041 56.1808 39.2041 55.6611C39.2041 54.1445 38.186 52.8823 36.7966 52.4793V51.8005C36.7966 51.2914 36.3829 50.8672 35.8632 50.8672C35.3435 50.8672 34.9299 51.2808 34.9299 51.8005V52.4793C33.5405 52.8823 32.5223 54.1551 32.5223 55.6611C32.5223 57.496 34.0178 58.9914 35.8526 58.9914C36.6693 58.9914 37.3269 59.6596 37.3269 60.4657C37.3269 61.2717 36.6587 61.9399 35.8526 61.9399C35.0466 61.9399 34.3784 61.2717 34.3784 60.4657C34.3784 59.9566 33.9647 59.5323 33.4451 59.5323C32.9254 59.5323 32.5117 59.946 32.5117 60.4657C32.5117 61.9823 33.5299 63.2445 34.9193 63.6475V64.3263C34.9193 64.8354 35.3329 65.2596 35.8526 65.2596C36.3723 65.2596 36.786 64.846 36.786 64.3263V63.6475C38.1754 63.2445 39.1935 61.9717 39.1935 60.4657C39.1935 58.6308 37.6981 57.1354 35.8632 57.1354C35.0466 57.1354 34.389 56.4672 34.389 55.6611C34.389 54.8551 35.0466 54.1869 35.8632 54.1869Z" fill="white"/>
</svg>
